<svg xmlns="http://www.w3.org/2000/svg" width="85" height="63" viewBox="0 0 85 63">
  <g id="Grupo_1101181" data-name="Grupo 1101181" transform="translate(-180 -390)">
    <rect id="Rectángulo_402735" data-name="Rectángulo 402735" width="85" height="40" transform="translate(180 413)" fill="#14d6f0"/>
    <g id="Grupo_1101093" data-name="Grupo 1101093" transform="translate(195 383.6)">
      <path id="Trazado_874954" data-name="Trazado 874954" d="M9.6,6.4H44.626a9.6,9.6,0,0,1,9.6,9.6V49.671a9.6,9.6,0,0,1-9.6,9.6H9.6a9.6,9.6,0,0,1-9.6-9.6V16A9.6,9.6,0,0,1,9.6,6.4Z" transform="translate(0 0)" fill="#001834"/>
      <g id="Grupo_1100379" data-name="Grupo 1100379" transform="translate(12.202 19.844)">
        <path id="Trazado_874955" data-name="Trazado 874955" d="M115.2,156.968V133.717c0-.158.068-.249.226-.249.384,0,.746,0,1.265-.023.542-.023,1.107-.023,1.717-.045s1.265-.023,1.966-.045,1.378-.023,2.056-.023a13.286,13.286,0,0,1,4.655.7,8.07,8.07,0,0,1,3.028,1.853,7.194,7.194,0,0,1,1.649,2.576,8.648,8.648,0,0,1,.52,2.937,8.078,8.078,0,0,1-1.356,4.813,7.741,7.741,0,0,1-3.638,2.757,14.645,14.645,0,0,1-5.084.768c-.542,0-.9,0-1.13-.023s-.542-.023-.972-.023v7.253a.281.281,0,0,1-.249.316h-4.383C115.29,157.262,115.2,157.171,115.2,156.968Zm4.926-19.138v7.592c.316.023.61.045.881.045h1.2a5.884,5.884,0,0,0,4.451-1.6,4.018,4.018,0,0,0,.181-4.338c-.9-1.378-2.7-1.778-4.248-1.74-.588,0-1.107,0-1.537.023A5.161,5.161,0,0,0,120.126,137.83Z" transform="translate(-115.2 -133.333)" fill="#00a9ff"/>
        <path id="Trazado_874956" data-name="Trazado 874956" d="M310.965,191.347a8,8,0,0,0-2.169-.768,11.909,11.909,0,0,0-2.531-.294,4.552,4.552,0,0,0-1.356.158,1.16,1.16,0,0,0-.7.452,1.2,1.2,0,0,0-.181.61,1,1,0,0,0,.226.588,2.549,2.549,0,0,0,.768.61c.52.271,1.062.52,1.6.746a16.365,16.365,0,0,1,3.48,1.649,5.257,5.257,0,0,1,1.785,1.875,4.879,4.879,0,0,1,.52,2.327,5.257,5.257,0,0,1-.881,3.005A5.662,5.662,0,0,1,309,204.317a10.353,10.353,0,0,1-4.09.723,15.564,15.564,0,0,1-3.073-.294,9.115,9.115,0,0,1-2.3-.723.444.444,0,0,1-.249-.429v-3.932a.245.245,0,0,1,.09-.2.172.172,0,0,1,.2.023,9.671,9.671,0,0,0,2.8,1.107,10.522,10.522,0,0,0,2.666.339,4.313,4.313,0,0,0,1.875-.316,1.05,1.05,0,0,0,.61-.949,1.2,1.2,0,0,0-.542-.9,9.587,9.587,0,0,0-2.214-1.062,13.822,13.822,0,0,1-3.209-1.627,5.851,5.851,0,0,1-1.717-1.921,4.849,4.849,0,0,1-.52-2.3,5.315,5.315,0,0,1,.768-2.734,5.57,5.57,0,0,1,2.373-2.079,8.762,8.762,0,0,1,4-.791,19.476,19.476,0,0,1,2.8.2,7.948,7.948,0,0,1,1.943.52.4.4,0,0,1,.226.2,1.136,1.136,0,0,1,.045.271v3.683a.278.278,0,0,1-.113.226A.6.6,0,0,1,310.965,191.347Z" transform="translate(-279.783 -180.636)" fill="#00a9ff"/>
      </g>
    </g>
  </g>
</svg>
