<svg xmlns="http://www.w3.org/2000/svg" width="51.949" height="46.148" viewBox="0 0 51.949 46.148">
  <g id="Grupo_1101354" data-name="Grupo 1101354" transform="translate(0 -0.499)">
    <path id="Trazado_877091" data-name="Trazado 877091" d="M385.635,209.572a1.015,1.015,0,1,1,.717-.3A1.022,1.022,0,0,1,385.635,209.572Zm0,0" transform="translate(-345.596 -186.036)" fill="#5b2ccf"/>
    <path id="Trazado_877092" data-name="Trazado 877092" d="M47.574,46.647H4.375A4.368,4.368,0,0,1,.592,40.1l21.6-37.412a4.368,4.368,0,0,1,7.565,0L38.714,18.2a1.015,1.015,0,1,1-1.757,1.015L28,3.7a2.339,2.339,0,0,0-4.051,0L2.349,41.109a2.339,2.339,0,0,0,2.026,3.509h43.2A2.339,2.339,0,0,0,49.6,41.109l-8.658-15A1.015,1.015,0,0,1,42.7,25.1l8.658,15a4.368,4.368,0,0,1-3.783,6.552Zm0,0" fill="#5b2ccf"/>
    <path id="Trazado_877093" data-name="Trazado 877093" d="M227.25,164.442A3.25,3.25,0,0,1,224,161.2v-9.156a3.246,3.246,0,1,1,6.493,0V161.2A3.25,3.25,0,0,1,227.25,164.442Zm0-13.62a1.219,1.219,0,0,0-1.218,1.217V161.2a1.218,1.218,0,0,0,2.435,0v-9.156A1.219,1.219,0,0,0,227.25,150.822Zm0,0" transform="translate(-201.276 -133.247)" fill="#5b2ccf"/>
    <path id="Trazado_877094" data-name="Trazado 877094" d="M227.25,333.521a3.246,3.246,0,1,1,2.3-.951A3.25,3.25,0,0,1,227.25,333.521Zm0-4.464a1.217,1.217,0,1,0,1.218,1.218A1.219,1.219,0,0,0,227.25,329.057Zm0,0" transform="translate(-201.276 -293.398)" fill="#5b2ccf"/>
  </g>
</svg>
