<svg id="Grupo_1101283" data-name="Grupo 1101283" xmlns="http://www.w3.org/2000/svg" width="43.68" height="43.68" viewBox="0 0 43.68 43.68">
  <g id="Grupo_1101272" data-name="Grupo 1101272">
    <g id="Grupo_1101271" data-name="Grupo 1101271">
      <path id="Trazado_876956" data-name="Trazado 876956" d="M0,0V43.68H43.68V0ZM41.12,41.12H2.559V2.559H41.12Z" fill="#5b2ccf"/>
    </g>
  </g>
  <g id="Grupo_1101274" data-name="Grupo 1101274" transform="translate(12.017 15.493)">
    <g id="Grupo_1101273" data-name="Grupo 1101273">
      <path id="Trazado_876957" data-name="Trazado 876957" d="M147.025,181.6h-6.163v14.537h2.826v-4.873h3.44a4.692,4.692,0,0,0,4.525-4.832A4.829,4.829,0,0,0,147.025,181.6Zm-.061,7.187h-3.276v-4.709h3.153a2.139,2.139,0,0,1,1.945,2.355C148.786,187.862,147.955,188.787,146.964,188.787Z" transform="translate(-140.862 -181.6)" fill="#5b2ccf"/>
    </g>
  </g>
  <g id="Grupo_1101276" data-name="Grupo 1101276" transform="translate(23.708 19.096)">
    <g id="Grupo_1101275" data-name="Grupo 1101275">
      <path id="Trazado_876958" data-name="Trazado 876958" d="M282.936,228.344c-.4-.1-2.109-.375-2.109-1.351,0-.783.642-1.208,1.638-1.208a5.553,5.553,0,0,1,3.112,1.188l1.106-1.658a5.976,5.976,0,0,0-4.2-1.474c-2.242,0-4.218,1.272-4.218,3.542,0,2.358,3.133,2.8,3.829,2.989.832.232,2.355.531,2.355,1.454,0,.752-.721,1.188-1.761,1.188a7.047,7.047,0,0,1-3.767-1.413l-1.024,1.72a7.728,7.728,0,0,0,4.853,1.658c1.338,0,4.341-.418,4.341-3.4C287.092,229.058,283.673,228.536,282.936,228.344Z" transform="translate(-277.899 -223.84)" fill="#5b2ccf"/>
    </g>
  </g>
</svg>
