<svg xmlns="http://www.w3.org/2000/svg" width="85.949" height="103" viewBox="0 0 85.949 103">
  <g id="Grupo_1100419" data-name="Grupo 1100419" transform="translate(-179.102 -390)">
    <g id="Grupo_1100417" data-name="Grupo 1100417" transform="translate(7944.043 15138.876)">
      <circle id="Elipse_11545" data-name="Elipse 11545" cx="35" cy="35" r="35" transform="translate(-7749.993 -14716.876)" fill="none" stroke="#bdaaeb" stroke-linecap="round" stroke-linejoin="round" stroke-width="2"/>
      <circle id="Elipse_11546" data-name="Elipse 11546" cx="16.886" cy="16.886" r="16.886" transform="translate(-7731.878 -14698.762)" fill="none" stroke="#bdaaeb" stroke-linecap="round" stroke-linejoin="round" stroke-width="2"/>
    </g>
    <g id="Grupo_1101189" data-name="Grupo 1101189" transform="translate(149.102 382)">
      <path id="Trazado_876763" data-name="Trazado 876763" d="M94.067,31.461V79.531a7.437,7.437,0,0,1-7.479,7.392H40.479A7.437,7.437,0,0,1,33,79.531V20.392A7.437,7.437,0,0,1,40.479,13H75.39a7.511,7.511,0,0,1,5.287,2.166l11.2,11.069a7.347,7.347,0,0,1,2.189,5.226Z" transform="translate(-2.036 -3.393)" fill="#001e36"/>
      <path id="Trazado_876764" data-name="Trazado 876764" d="M77.994,83.455v-25a.225.225,0,0,1,.254-.257c1.829-.048,3.992-.2,6.817-.2,3.327,0,5.763.7,7.318,2.221a7.559,7.559,0,0,1,2.324,5.621,7.019,7.019,0,0,1-2.893,6.171,12.38,12.38,0,0,1-7.264,2.022l-2.057.035v9.35c0,.2-.08.292-.273.292H78.284c-.193,0-.289-.087-.289-.257Zm4.5-21.856v9.022a18.963,18.963,0,0,1,2.276-.042A6.548,6.548,0,0,0,88.691,69.5a4.062,4.062,0,0,0,1.5-3.535,4.248,4.248,0,0,0-1.321-3.343,5.544,5.544,0,0,0-3.805-1.183H83.857c-.4,0-.723.019-.964.019s-.424.016-.4.132Z" transform="translate(-32.567 -33.93)" fill="#31a8ff"/>
      <path id="Trazado_876765" data-name="Trazado 876765" d="M150.855,92.731a5.143,5.143,0,0,1-1.835,4.091c-.109.106-.225.206-.347.305a7.99,7.99,0,0,1-5.126,1.514,10.581,10.581,0,0,1-5.29-1.176.347.347,0,0,1-.222-.373V93.666a.222.222,0,0,1,.093-.2.122.122,0,0,1,.164.019,8.418,8.418,0,0,0,5.107,1.768,3.513,3.513,0,0,0,1.964-.456,1.4,1.4,0,0,0,.672-1.2,1.739,1.739,0,0,0-.553-1.308,6.842,6.842,0,0,0-2.166-1.16,10.648,10.648,0,0,1-4.095-2.452A4.631,4.631,0,0,1,138,85.464a5.165,5.165,0,0,1,1.8-3.912A7.134,7.134,0,0,1,144.719,80a10.79,10.79,0,0,1,4.667.813c.122.071.183.231.183.476v3.057c0,.3-.109.37-.321.222a8.238,8.238,0,0,0-4.371-1.286,3.033,3.033,0,0,0-1.89.479,1.421,1.421,0,0,0-.607,1.141,1.572,1.572,0,0,0,.514,1.163,7.275,7.275,0,0,0,2.166,1.157,12.345,12.345,0,0,1,4.14,2.346l.022.023A4.431,4.431,0,0,1,150.855,92.731Z" transform="translate(-73.287 -48.859)" fill="#31a8ff"/>
      <g id="Grupo_1101189-2" data-name="Grupo 1101189" transform="translate(47.995 62.639)">
        <path id="Trazado_876766" data-name="Trazado 876766" d="M85.993,189.448V178.157c0-.08.035-.122.1-.122Q87.214,178,89.233,178a4.7,4.7,0,0,1,3.384,1.057,3.536,3.536,0,0,1,1.09,2.648,3.339,3.339,0,0,1-1.331,2.893,5.589,5.589,0,0,1-3.372.964H87.921v3.9c0,.08-.045.122-.138.122H86.115a.109.109,0,0,1-.122-.135Zm1.928-9.822v4.3c.341.026.678.035,1.189.035a2.941,2.941,0,0,0,1.793-.514,1.981,1.981,0,0,0,.694-1.7,2.038,2.038,0,0,0-.617-1.581,2.491,2.491,0,0,0-1.748-.553c-.617,0-.99,0-1.311.019Z" transform="translate(-85.99 -178)" fill="#fff"/>
        <path id="Trazado_876767" data-name="Trazado 876767" d="M118.055,189.593a5.981,5.981,0,0,1-2.934-.665.267.267,0,0,1-.1-.238v-1.668c0-.113.045-.135.138-.067a5.1,5.1,0,0,0,2.951.99,2.17,2.17,0,0,0,1.417-.386,1.221,1.221,0,0,0,.453-.964,1.257,1.257,0,0,0-.35-.906,4.178,4.178,0,0,0-1.331-.836l-.643-.305a5.329,5.329,0,0,1-1.973-1.424,2.909,2.909,0,0,1-.585-1.883,3.021,3.021,0,0,1,1-2.3,4.063,4.063,0,0,1,2.832-.9,5.329,5.329,0,0,1,2.456.476c.067.026.1.093.1.206v1.549a.09.09,0,0,1-.035.077c-.022.019-.058,0-.1,0a4.5,4.5,0,0,0-2.475-.717,1.848,1.848,0,0,0-1.347.418,1.263,1.263,0,0,0-.421.91,1.469,1.469,0,0,0,.344.964,4.079,4.079,0,0,0,1.3.832l.688.321a5.318,5.318,0,0,1,2.076,1.472,3.143,3.143,0,0,1-.524,4.178,4.555,4.555,0,0,1-2.934.868Z" transform="translate(-105.687 -178.022)" fill="#fff"/>
        <path id="Trazado_876768" data-name="Trazado 876768" d="M142,189.378v-11.2a.122.122,0,0,1,.1-.138c1.241-.023,2.34-.035,3.3-.035a5.435,5.435,0,0,1,4.178,1.549,5.727,5.727,0,0,1,1.427,4.079,7.2,7.2,0,0,1-.37,2.4,5.143,5.143,0,0,1-.948,1.707,4.846,4.846,0,0,1-1.376,1.08,5.923,5.923,0,0,1-1.581.591,7.714,7.714,0,0,1-1.626.167c-1.08,0-2.076,0-3-.035C142.033,189.535,142,189.484,142,189.378Zm1.928-9.771v8.357c.537.022.9.035,1.286.035a3.468,3.468,0,0,0,2.668-1.038,4.681,4.681,0,0,0,.964-3.269,4.52,4.52,0,0,0-.9-3.092,3.214,3.214,0,0,0-2.52-1c-.7-.013-1.141.01-1.495.01Z" transform="translate(-123.995 -178)" fill="#fff"/>
      </g>
      <path id="Trazado_876769" data-name="Trazado 876769" d="M73.73,11.214a4.48,4.48,0,0,1,3.182,1.318L88.464,24.07a4.48,4.48,0,0,1,1.318,3.182V77.424a4.5,4.5,0,0,1-4.5,4.5H37.714a4.5,4.5,0,0,1-4.5-4.5V15.714a4.5,4.5,0,0,1,4.5-4.5ZM73.73,8H37.714A7.714,7.714,0,0,0,30,15.714v61.71a7.714,7.714,0,0,0,7.714,7.714H85.282A7.714,7.714,0,0,0,93,77.424V27.265a7.714,7.714,0,0,0-2.25-5.464L79.175,10.25A7.714,7.714,0,0,0,73.711,8Z" fill="#31a8ff"/>
    </g>
  </g>
</svg>
