<svg xmlns="http://www.w3.org/2000/svg" width="50" height="50" viewBox="0 0 50 50">
  <g id="Grupo_1099620" data-name="Grupo 1099620" transform="translate(-179.73 -2044)">
    <rect id="Rectángulo_401746" data-name="Rectángulo 401746" width="50" height="50" rx="3" transform="translate(179.73 2044)" fill="#31a8ff"/>
    <g id="Layer_x0020_1" transform="translate(151.73 2051)">
      <g id="_407819240" transform="translate(35 -1)">
        <g id="Grupo_1099608" data-name="Grupo 1099608" transform="translate(6.334 6.553)">
          <path id="Trazado_873956" data-name="Trazado 873956" d="M342.691,324.1H330.424a.465.465,0,0,1-.437-.284l-4.715-8.163a.572.572,0,0,1,.044-.589l10.848-15.606a.554.554,0,0,1,.873,0l10.848,15.606a.572.572,0,0,1,.044.589l-4.693,8.163A.748.748,0,0,1,342.691,324.1Zm-11.961-1.07h11.655l4.387-7.639-10.215-14.667L326.343,315.44Z" transform="translate(-325.212 -299.25)" fill="#fff" fill-rule="evenodd"/>
        </g>
        <g id="Grupo_1099609" data-name="Grupo 1099609" transform="translate(11.001 30.339)">
          <path id="Trazado_873957" data-name="Trazado 873957" d="M551.812,1395.941H539.546a.554.554,0,0,1-.546-.546v-5.849a.554.554,0,0,1,.546-.546.54.54,0,0,1,.546.546v5.348H551.31v-5.348a.546.546,0,0,1,1.091,0v5.893A.629.629,0,0,1,551.812,1395.941Z" transform="translate(-539 -1389)" fill="#fff" fill-rule="evenodd"/>
        </g>
        <g id="Grupo_1099610" data-name="Grupo 1099610" transform="translate(17.134 6.548)">
          <path id="Trazado_873958" data-name="Trazado 873958" d="M820.546,311.987a.554.554,0,0,1-.546-.546v-11.9a.546.546,0,0,1,1.091,0v11.917A.551.551,0,0,1,820.546,311.987Z" transform="translate(-820 -299)" fill="#fff" fill-rule="evenodd"/>
        </g>
        <g id="Grupo_1099611" data-name="Grupo 1099611" transform="translate(15.017 18.465)">
          <path id="Trazado_873959" data-name="Trazado 873959" d="M725.663,850.3a2.652,2.652,0,1,1,2.641-2.641A2.641,2.641,0,0,1,725.663,850.3Zm0-4.234a1.621,1.621,0,0,0-1.615,1.593,1.6,1.6,0,0,0,1.615,1.572,1.565,1.565,0,0,0,1.572-1.572A1.584,1.584,0,0,0,725.663,846.069Z" transform="translate(-723 -845)" fill="#fff" fill-rule="evenodd"/>
        </g>
        <g id="Grupo_1099612" data-name="Grupo 1099612" transform="translate(2.488 2.466)">
          <path id="Trazado_873960" data-name="Trazado 873960" d="M178.837,125.249a.54.54,0,0,1-.546-.546,11.635,11.635,0,0,0-11.612-11.612.546.546,0,0,1,0-1.091,12.64,12.64,0,0,1,12.659,12.659A.5.5,0,0,1,178.837,125.249Zm-29.291,0A.54.54,0,0,1,149,124.7a12.692,12.692,0,0,1,12.681-12.681.546.546,0,1,1,0,1.091,11.635,11.635,0,0,0-11.612,11.612A.5.5,0,0,1,149.546,125.249Z" transform="translate(-149 -112)" fill="#fff" fill-rule="evenodd"/>
        </g>
        <g id="Grupo_1099613" data-name="Grupo 1099613" transform="translate(0 14.646)">
          <path id="Trazado_873961" data-name="Trazado 873961" d="M39.8,676.09H36.244A1.248,1.248,0,0,1,35,674.824v-3.558A1.277,1.277,0,0,1,36.244,670H39.8a1.24,1.24,0,0,1,1.266,1.266v3.558A1.253,1.253,0,0,1,39.8,676.09Zm-3.558-5.02a.192.192,0,0,0-.175.2v3.558a.216.216,0,0,0,.175.218H39.8a.235.235,0,0,0,.218-.218v-3.558a.215.215,0,0,0-.218-.2Z" transform="translate(-35 -670)" fill="#fff" fill-rule="evenodd"/>
        </g>
        <g id="Grupo_1099614" data-name="Grupo 1099614" transform="translate(29.684 14.646)">
          <path id="Trazado_873962" data-name="Trazado 873962" d="M1399.78,676.09h-3.536a1.248,1.248,0,0,1-1.244-1.266v-3.558a1.262,1.262,0,0,1,1.244-1.266h3.536a1.248,1.248,0,0,1,1.244,1.266v3.558A1.262,1.262,0,0,1,1399.78,676.09Zm-3.58-5.02a.192.192,0,0,0-.175.2v3.558a.216.216,0,0,0,.175.218h3.558a.216.216,0,0,0,.175-.218v-3.558a.192.192,0,0,0-.175-.2Z" transform="translate(-1395 -670)" fill="#fff" fill-rule="evenodd"/>
        </g>
        <g id="Grupo_1099615" data-name="Grupo 1099615" transform="translate(14.646)">
          <path id="Trazado_873963" data-name="Trazado 873963" d="M710.8,5.09h-3.558A1.248,1.248,0,0,1,706,3.824V.288A1.3,1.3,0,0,1,707.244-1H710.8A1.263,1.263,0,0,1,712.024.288V3.824A1.217,1.217,0,0,1,710.8,5.09ZM707.244.069a.2.2,0,0,0-.175.218V3.824a.2.2,0,0,0,.175.218H710.8a.2.2,0,0,0,.175-.218V.288A.2.2,0,0,0,710.8.069Z" transform="translate(-706 1)" fill="#fff" fill-rule="evenodd"/>
        </g>
        <g id="Grupo_1099616" data-name="Grupo 1099616" transform="translate(15.169 33.285)">
          <path id="Trazado_873964" data-name="Trazado 873964" d="M738.643,1525.091h-8.1a.546.546,0,0,1,0-1.091h8.119a.54.54,0,0,1,.546.546A.574.574,0,0,1,738.643,1525.091Z" transform="translate(-730 -1524)" fill="#fff" fill-rule="evenodd"/>
        </g>
      </g>
    </g>
  </g>
</svg>
