<svg xmlns="http://www.w3.org/2000/svg" xmlns:xlink="http://www.w3.org/1999/xlink" width="988.637" height="449.664" viewBox="0 0 988.637 449.664">
  <defs>
    <clipPath id="clip-path">
      <rect id="Rectángulo_402156" data-name="Rectángulo 402156" width="295" height="51.611" fill="none"/>
    </clipPath>
  </defs>
  <g id="Grupo_1100451" data-name="Grupo 1100451" opacity="0.2">
    <g id="Grupo_1100422" data-name="Grupo 1100422" transform="translate(693.636 398.053)">
      <g id="Grupo_1100384" data-name="Grupo 1100384" clip-path="url(#clip-path)">
        <path id="Trazado_874960" data-name="Trazado 874960" d="M171.243,19.056l36.548,25.775L244.356,19.08" transform="translate(49.348 5.491)" fill="none" stroke="#31a8ff" stroke-linecap="round" stroke-linejoin="round" stroke-width="2"/>
        <path id="Trazado_874961" data-name="Trazado 874961" d="M57.744,19.019,94.286,44.794l36.56-25.751L167.39,44.818" transform="translate(16.64 5.481)" fill="none" stroke="#31a8ff" stroke-linecap="round" stroke-linejoin="round" stroke-width="2"/>
        <line id="Línea_633" data-name="Línea 633" x2="36.542" y2="25.775" transform="translate(1.288 24.475)" fill="none" stroke="#31a8ff" stroke-linecap="round" stroke-linejoin="round" stroke-width="2"/>
        <path id="Trazado_874962" data-name="Trazado 874962" d="M142.867,26.807l36.56-25.752,36.548,25.776L252.541,1.08" transform="translate(41.171 0.304)" fill="none" stroke="#5b2ccf" stroke-linecap="round" stroke-linejoin="round" stroke-width="2"/>
        <path id="Trazado_874963" data-name="Trazado 874963" d="M1.006,1,37.548,26.775,74.1,1.024,110.644,26.8,147.2,1.048" transform="translate(0.29 0.288)" fill="none" stroke="#5b2ccf" stroke-linecap="round" stroke-linejoin="round" stroke-width="2"/>
      </g>
    </g>
    <g id="Grupo_1100434" data-name="Grupo 1100434" transform="translate(0 0.664)">
      <path id="Trazado_875036" data-name="Trazado 875036" d="M102.2,56.977A45.227,45.227,0,1,1,56.977,11.75,45.228,45.228,0,0,1,102.2,56.977" transform="translate(-11.75 -11.75)" fill="#31a8ff"/>
      <circle id="Elipse_11548" data-name="Elipse 11548" cx="45.227" cy="45.227" r="45.227" transform="translate(13.182 2.38)" fill="none" stroke="#5b2ccf" stroke-linecap="round" stroke-linejoin="round" stroke-width="2"/>
      <circle id="Elipse_11549" data-name="Elipse 11549" cx="21.82" cy="21.82" r="21.82" transform="translate(36.589 25.787)" fill="none" stroke="#5b2ccf" stroke-linecap="round" stroke-linejoin="round" stroke-width="2"/>
    </g>
    <g id="Grupo_1100435" data-name="Grupo 1100435" transform="translate(897.066 0)">
      <path id="Trazado_875047" data-name="Trazado 875047" d="M59.931,64.9a1.416,1.416,0,1,1,1.417,1.417A1.417,1.417,0,0,1,59.931,64.9" transform="translate(28.808 35.635)" fill="#31a8ff"/>
      <path id="Trazado_875048" data-name="Trazado 875048" d="M46.622,64.9a1.416,1.416,0,1,1,1.417,1.417A1.417,1.417,0,0,1,46.622,64.9" transform="translate(19.932 35.635)" fill="#31a8ff"/>
      <path id="Trazado_875049" data-name="Trazado 875049" d="M33.313,64.9a1.416,1.416,0,1,1,1.415,1.417A1.416,1.416,0,0,1,33.313,64.9" transform="translate(11.057 35.635)" fill="#31a8ff"/>
      <path id="Trazado_875050" data-name="Trazado 875050" d="M20,64.9A1.416,1.416,0,1,1,21.42,66.32,1.417,1.417,0,0,1,20,64.9" transform="translate(2.181 35.635)" fill="#31a8ff"/>
      <path id="Trazado_875051" data-name="Trazado 875051" d="M6.694,64.9A1.416,1.416,0,1,1,8.111,66.32,1.417,1.417,0,0,1,6.694,64.9" transform="translate(-6.694 35.635)" fill="#31a8ff"/>
      <path id="Trazado_875052" data-name="Trazado 875052" d="M59.931,53.01a1.416,1.416,0,1,1,1.417,1.417,1.417,1.417,0,0,1-1.417-1.417" transform="translate(28.808 27.704)" fill="#31a8ff"/>
      <path id="Trazado_875053" data-name="Trazado 875053" d="M46.622,53.01a1.416,1.416,0,1,1,1.417,1.417,1.417,1.417,0,0,1-1.417-1.417" transform="translate(19.932 27.704)" fill="#31a8ff"/>
      <path id="Trazado_875054" data-name="Trazado 875054" d="M33.313,53.01a1.416,1.416,0,1,1,1.415,1.417,1.416,1.416,0,0,1-1.415-1.417" transform="translate(11.057 27.704)" fill="#31a8ff"/>
      <path id="Trazado_875055" data-name="Trazado 875055" d="M20,53.01a1.416,1.416,0,1,1,1.417,1.417A1.417,1.417,0,0,1,20,53.01" transform="translate(2.181 27.704)" fill="#31a8ff"/>
      <path id="Trazado_875056" data-name="Trazado 875056" d="M6.694,53.01a1.416,1.416,0,1,1,1.417,1.417A1.417,1.417,0,0,1,6.694,53.01" transform="translate(-6.694 27.704)" fill="#31a8ff"/>
      <path id="Trazado_875057" data-name="Trazado 875057" d="M59.931,41.116a1.416,1.416,0,1,1,1.417,1.417,1.415,1.415,0,0,1-1.417-1.417" transform="translate(28.808 19.773)" fill="#31a8ff"/>
      <path id="Trazado_875058" data-name="Trazado 875058" d="M46.622,41.116a1.416,1.416,0,1,1,1.417,1.417,1.415,1.415,0,0,1-1.417-1.417" transform="translate(19.932 19.773)" fill="#31a8ff"/>
      <path id="Trazado_875059" data-name="Trazado 875059" d="M33.313,41.116a1.416,1.416,0,1,1,1.415,1.417,1.415,1.415,0,0,1-1.415-1.417" transform="translate(11.057 19.773)" fill="#31a8ff"/>
      <path id="Trazado_875060" data-name="Trazado 875060" d="M20,41.116a1.416,1.416,0,1,1,1.417,1.417A1.415,1.415,0,0,1,20,41.116" transform="translate(2.181 19.773)" fill="#31a8ff"/>
      <path id="Trazado_875061" data-name="Trazado 875061" d="M6.694,41.116a1.416,1.416,0,1,1,1.417,1.417,1.415,1.415,0,0,1-1.417-1.417" transform="translate(-6.694 19.773)" fill="#31a8ff"/>
      <path id="Trazado_875062" data-name="Trazado 875062" d="M59.931,29.223a1.416,1.416,0,1,1,1.417,1.417,1.417,1.417,0,0,1-1.417-1.417" transform="translate(28.808 11.841)" fill="#31a8ff"/>
      <path id="Trazado_875063" data-name="Trazado 875063" d="M46.622,29.223a1.416,1.416,0,1,1,1.417,1.417,1.417,1.417,0,0,1-1.417-1.417" transform="translate(19.932 11.841)" fill="#31a8ff"/>
      <path id="Trazado_875064" data-name="Trazado 875064" d="M33.313,29.223a1.416,1.416,0,1,1,1.415,1.417,1.416,1.416,0,0,1-1.415-1.417" transform="translate(11.057 11.841)" fill="#31a8ff"/>
      <path id="Trazado_875065" data-name="Trazado 875065" d="M20,29.223A1.416,1.416,0,1,1,21.42,30.64,1.417,1.417,0,0,1,20,29.223" transform="translate(2.181 11.841)" fill="#31a8ff"/>
      <path id="Trazado_875066" data-name="Trazado 875066" d="M6.694,29.223A1.416,1.416,0,1,1,8.111,30.64a1.417,1.417,0,0,1-1.417-1.417" transform="translate(-6.694 11.841)" fill="#31a8ff"/>
      <path id="Trazado_875067" data-name="Trazado 875067" d="M59.931,17.33a1.416,1.416,0,1,1,1.417,1.417,1.417,1.417,0,0,1-1.417-1.417" transform="translate(28.808 3.91)" fill="#31a8ff"/>
      <path id="Trazado_875068" data-name="Trazado 875068" d="M46.622,17.33a1.416,1.416,0,1,1,1.417,1.417,1.417,1.417,0,0,1-1.417-1.417" transform="translate(19.932 3.91)" fill="#31a8ff"/>
      <path id="Trazado_875069" data-name="Trazado 875069" d="M33.313,17.33a1.416,1.416,0,1,1,1.415,1.417,1.416,1.416,0,0,1-1.415-1.417" transform="translate(11.057 3.91)" fill="#31a8ff"/>
      <path id="Trazado_875070" data-name="Trazado 875070" d="M20,17.33a1.416,1.416,0,1,1,1.417,1.417A1.417,1.417,0,0,1,20,17.33" transform="translate(2.181 3.91)" fill="#31a8ff"/>
      <path id="Trazado_875071" data-name="Trazado 875071" d="M6.694,17.33a1.416,1.416,0,1,1,1.417,1.417A1.417,1.417,0,0,1,6.694,17.33" transform="translate(-6.694 3.91)" fill="#31a8ff"/>
      <path id="Trazado_875072" data-name="Trazado 875072" d="M59.931,5.436a1.416,1.416,0,1,1,1.417,1.417,1.415,1.415,0,0,1-1.417-1.417" transform="translate(28.808 -4.021)" fill="#31a8ff"/>
      <path id="Trazado_875073" data-name="Trazado 875073" d="M46.622,5.436a1.416,1.416,0,1,1,1.417,1.417,1.415,1.415,0,0,1-1.417-1.417" transform="translate(19.932 -4.021)" fill="#31a8ff"/>
      <path id="Trazado_875074" data-name="Trazado 875074" d="M33.313,5.436a1.416,1.416,0,1,1,1.415,1.417,1.415,1.415,0,0,1-1.415-1.417" transform="translate(11.057 -4.021)" fill="#31a8ff"/>
      <path id="Trazado_875075" data-name="Trazado 875075" d="M20,5.436A1.416,1.416,0,1,1,21.42,6.853,1.415,1.415,0,0,1,20,5.436" transform="translate(2.181 -4.021)" fill="#31a8ff"/>
      <path id="Trazado_875076" data-name="Trazado 875076" d="M6.694,5.436A1.416,1.416,0,1,1,8.111,6.853,1.415,1.415,0,0,1,6.694,5.436" transform="translate(-6.694 -4.021)" fill="#31a8ff"/>
    </g>
  </g>
</svg>
