<svg xmlns="http://www.w3.org/2000/svg" width="60" height="60" viewBox="0 0 60 60">
  <g id="Grupo_1101215" data-name="Grupo 1101215" transform="translate(-824.051 -2355)">
    <rect id="Rectángulo_402785" data-name="Rectángulo 402785" width="60" height="60" transform="translate(824.051 2355)" fill="#5b2ccf"/>
    <path id="Trazado_876777" data-name="Trazado 876777" d="M24.572,65.232a3.3,3.3,0,1,0-3.3-3.3A3.3,3.3,0,0,0,24.572,65.232Zm0-5.275a1.978,1.978,0,1,1-1.978,1.978A1.981,1.981,0,0,1,24.572,59.956Zm22.42,9.232a3.3,3.3,0,1,0,3.3,3.3A3.3,3.3,0,0,0,46.992,69.188Zm0,5.275a1.978,1.978,0,1,1,1.978-1.978A1.981,1.981,0,0,1,46.992,74.463ZM32.485,79.738a3.3,3.3,0,1,0,3.3,3.3A3.3,3.3,0,0,0,32.485,79.738Zm0,5.275a1.978,1.978,0,1,1,1.978-1.978A1.981,1.981,0,0,1,32.485,85.014Zm21.1-3.956H38.079a5.933,5.933,0,0,0-11.189,0H17.978a1.978,1.978,0,0,0,0,3.956h8.912a5.933,5.933,0,0,0,11.189,0H53.586a1.978,1.978,0,0,0,0-3.956ZM17.978,83.695a.659.659,0,1,1,0-1.319h8.61a5.816,5.816,0,0,0,0,1.319Zm14.507,3.956A4.616,4.616,0,1,1,37.1,83.035,4.621,4.621,0,0,1,32.485,87.651Zm21.1-3.956h-15.2a5.816,5.816,0,0,0,0-1.319h15.2a.659.659,0,0,1,0,1.319Zm0-13.188h-1a5.933,5.933,0,0,0-11.189,0H17.978a1.978,1.978,0,1,0,0,3.956H41.4a5.933,5.933,0,0,0,11.189,0h1a1.978,1.978,0,0,0,0-3.956ZM17.978,73.144a.659.659,0,1,1,0-1.319H41.095a5.815,5.815,0,0,0,0,1.319ZM46.992,77.1a4.616,4.616,0,1,1,4.616-4.616A4.621,4.621,0,0,1,46.992,77.1Zm6.594-3.956h-.7a5.816,5.816,0,0,0,0-1.319h.7a.659.659,0,1,1,0,1.319ZM17.978,63.913h1a5.933,5.933,0,0,0,11.189,0H53.586a1.978,1.978,0,1,0,0-3.956H30.167a5.933,5.933,0,0,0-11.189,0h-1a1.978,1.978,0,1,0,0,3.956Zm35.608-2.638a.659.659,0,1,1,0,1.319H30.469a5.816,5.816,0,0,0,0-1.319ZM24.572,57.319a4.616,4.616,0,1,1-4.616,4.616A4.621,4.621,0,0,1,24.572,57.319Zm-6.594,3.956h.7a5.816,5.816,0,0,0,0,1.319h-.7a.659.659,0,1,1,0-1.319Z" transform="translate(818.672 2312.185)" fill="#fff"/>
  </g>
</svg>
