<svg xmlns="http://www.w3.org/2000/svg" xmlns:xlink="http://www.w3.org/1999/xlink" width="400" height="351" viewBox="0 0 400 351">
  <defs>
    <clipPath id="clip-path">
      <rect id="Rectángulo_402156" data-name="Rectángulo 402156" width="295" height="51.611" fill="none"/>
    </clipPath>
  </defs>
  <g id="Grupo_1101495" data-name="Grupo 1101495" transform="translate(-1020.051 -10633)">
    <rect id="Rectángulo_402937" data-name="Rectángulo 402937" width="400" height="351" transform="translate(1020.051 10633)" fill="#a0eef9"/>
    <g id="Grupo_1101496" data-name="Grupo 1101496" transform="translate(1031.688 10733.074)">
      <g id="Grupo_1100384" data-name="Grupo 1100384" clip-path="url(#clip-path)">
        <path id="Trazado_874960" data-name="Trazado 874960" d="M171.243,19.056l36.548,25.775L244.356,19.08" transform="translate(49.348 5.491)" fill="none" stroke="#31a8ff" stroke-linecap="round" stroke-linejoin="round" stroke-width="2"/>
        <path id="Trazado_874961" data-name="Trazado 874961" d="M57.744,19.019,94.286,44.794l36.56-25.751L167.39,44.818" transform="translate(16.64 5.481)" fill="none" stroke="#31a8ff" stroke-linecap="round" stroke-linejoin="round" stroke-width="2"/>
        <line id="Línea_633" data-name="Línea 633" x2="36.542" y2="25.775" transform="translate(1.288 24.475)" fill="none" stroke="#31a8ff" stroke-linecap="round" stroke-linejoin="round" stroke-width="2"/>
        <path id="Trazado_874962" data-name="Trazado 874962" d="M142.867,26.807l36.56-25.752,36.548,25.776L252.541,1.08" transform="translate(41.171 0.304)" fill="none" stroke="#5b2ccf" stroke-linecap="round" stroke-linejoin="round" stroke-width="2"/>
        <path id="Trazado_874963" data-name="Trazado 874963" d="M1.006,1,37.548,26.775,74.1,1.024,110.644,26.8,147.2,1.048" transform="translate(0.29 0.288)" fill="none" stroke="#5b2ccf" stroke-linecap="round" stroke-linejoin="round" stroke-width="2"/>
      </g>
    </g>
    <g id="Grupo_1101444" data-name="Grupo 1101444" transform="translate(974.928 10491.109)">
      <path id="Trazado_877118" data-name="Trazado 877118" d="M392.517,410.1a136.6,136.6,0,0,1-7.042,43.44c-.7,2.107-1.454,4.2-2.265,6.271H128.067c-.811-2.067-1.563-4.164-2.265-6.271A136.893,136.893,0,1,1,392.517,410.1Z" transform="translate(-0.706 -0.272)" fill="#bdaaeb"/>
      <g id="Grupo_1101403" data-name="Grupo 1101403" transform="translate(260.341 367.921)">
        <g id="Grupo_1101402" data-name="Grupo 1101402">
          <path id="Trazado_877119" data-name="Trazado 877119" d="M283.575,435.484,294.429,410.7l11.458-26.137a10.938,10.938,0,1,0-20.042-8.768l-11.223,25.6-11.079,25.313a10.935,10.935,0,0,0,5.627,14.41,10.612,10.612,0,0,0,2.715.794A10.932,10.932,0,0,0,283.575,435.484Z" transform="translate(-262.619 -369.242)" fill="#1a50c7"/>
        </g>
      </g>
      <g id="Grupo_1101406" data-name="Grupo 1101406" transform="translate(231.373 350.132)">
        <g id="Grupo_1101404" data-name="Grupo 1101404" transform="translate(0 0)">
          <path id="Trazado_877120" data-name="Trazado 877120" d="M250.306,366.282l-5.159-11.467a2.563,2.563,0,0,1,1.25-3.288h0a2.319,2.319,0,0,1,3.2,1.057l5.159,11.467a2.563,2.563,0,0,1-1.25,3.288h0A2.32,2.32,0,0,1,250.306,366.282Z" transform="translate(-233.457 -351.257)" fill="#f88895"/>
          <path id="Trazado_877121" data-name="Trazado 877121" d="M244.168,365.247l-4.5-10a2.563,2.563,0,0,1,1.25-3.288h0a2.319,2.319,0,0,1,3.2,1.057l4.5,10a2.563,2.563,0,0,1-1.25,3.288h0A2.321,2.321,0,0,1,244.168,365.247Z" transform="translate(-233.397 -351.262)" fill="#f88895"/>
          <path id="Trazado_877122" data-name="Trazado 877122" d="M240.74,370.2l-4.5-10.009a2.563,2.563,0,0,1,1.25-3.288h0a2.319,2.319,0,0,1,3.2,1.057l4.5,10.009a2.563,2.563,0,0,1-1.25,3.288h0A2.319,2.319,0,0,1,240.74,370.2Z" transform="translate(-233.36 -351.316)" fill="#f88895"/>
          <path id="Trazado_877123" data-name="Trazado 877123" d="M237.93,375.167l-4.421-9.826a2.224,2.224,0,0,1,1.085-2.854h0a2.013,2.013,0,0,1,2.781.918l4.421,9.827a2.224,2.224,0,0,1-1.085,2.853h0A2.012,2.012,0,0,1,237.93,375.167Z" transform="translate(-233.33 -351.377)" fill="#f88895"/>
          <path id="Trazado_877124" data-name="Trazado 877124" d="M244.039,383.831c5.356,2.42,11.92-.1,14.662-5.639s.622-11.983-4.735-14.4-11.921.1-14.662,5.639S238.684,381.41,244.039,383.831Z" transform="translate(-233.383 -351.384)" fill="#f88895"/>
          <path id="Trazado_877125" data-name="Trazado 877125" d="M259.5,359.465a2.357,2.357,0,0,1,2.547,2.354l.19,8.619a2.663,2.663,0,0,1-.23,1.125,4.643,4.643,0,0,1-4.072,3.593,4.075,4.075,0,0,1-4.4-4.073,4.688,4.688,0,0,1,3.624-4.642l-.093-4.226A2.706,2.706,0,0,1,259.5,359.465Z" transform="translate(-233.551 -351.346)" fill="#f88895"/>
          <line id="Línea_683" data-name="Línea 683" x1="4.494" y1="10.44" transform="translate(11.415 2.496)" fill="none" stroke="#342d3a" stroke-linecap="round" stroke-linejoin="round" stroke-miterlimit="10" stroke-width="1"/>
          <line id="Línea_684" data-name="Línea 684" x1="4.493" y1="10.44" transform="translate(7.035 5.611)" fill="none" stroke="#342d3a" stroke-linecap="round" stroke-linejoin="round" stroke-miterlimit="10" stroke-width="1"/>
          <line id="Línea_685" data-name="Línea 685" x1="4.494" y1="10.44" transform="translate(4.105 11.272)" fill="none" stroke="#342d3a" stroke-linecap="round" stroke-linejoin="round" stroke-miterlimit="10" stroke-width="1"/>
        </g>
        <g id="Grupo_1101405" data-name="Grupo 1101405" transform="translate(7.403 25.604)">
          <path id="Trazado_877126" data-name="Trazado 877126" d="M259.271,437.828,250.2,411.737l-9.162-26.415c-.086-.233-.153-.472-.221-.71l20.486-7.468c.138.323.269.658.391,1l9.363,26.957,8.875,25.559a10.933,10.933,0,0,1-4.2,12.66,10.665,10.665,0,0,1-2.536,1.258A10.936,10.936,0,0,1,259.271,437.828Z" transform="translate(-240.815 -377.144)" fill="#1a50c7"/>
        </g>
        <line id="Línea_686" data-name="Línea 686" y1="7.467" x2="20.485" transform="translate(7.404 25.605)" fill="none"/>
      </g>
      <g id="Grupo_1101407" data-name="Grupo 1101407" transform="translate(259.652 376.732)">
        <path id="Trazado_877127" data-name="Trazado 877127" d="M261.922,378.15l9.363,26.957,8.875,25.559a10.931,10.931,0,0,1-3.006,11.727" transform="translate(-261.922 -378.15)" fill="none" stroke="#342d3a" stroke-linecap="round" stroke-linejoin="round" stroke-miterlimit="10" stroke-width="1"/>
      </g>
      <g id="Grupo_1101408" data-name="Grupo 1101408" transform="translate(261.936 440.57)">
        <path id="Trazado_877128" data-name="Trazado 877128" d="M278.042,442.874a4.937,4.937,0,0,0-5.235,1.751l-4.271-1.186a3.4,3.4,0,0,0-1.816,6.544l8.222,2.282c.052.015.1.015.157.027.1.035.2.071.3.1a4.938,4.938,0,1,0,2.642-9.517Z" transform="translate(-264.231 -442.693)" fill="#f88895"/>
        <path id="Trazado_877129" data-name="Trazado 877129" d="M280.507,444.46a4.937,4.937,0,0,0-7.7.165l-4.271-1.186a3.4,3.4,0,0,0-4.18,2.364" transform="translate(-264.232 -442.693)" fill="none" stroke="#342d3a" stroke-linecap="round" stroke-linejoin="round" stroke-miterlimit="10" stroke-width="1"/>
      </g>
      <g id="Grupo_1101409" data-name="Grupo 1101409" transform="translate(125.197 330.878)">
        <path id="Trazado_877130" data-name="Trazado 877130" d="M146.485,408.823H228.37a10.241,10.241,0,0,0,10.158-11.546l-7.261-56.552a10.24,10.24,0,0,0-10.158-8.936H139.225a10.241,10.241,0,0,0-10.158,11.546l7.261,56.552A10.24,10.24,0,0,0,146.485,408.823Z" transform="translate(-126.015 -331.79)" fill="#d7d8db"/>
        <path id="Trazado_877131" data-name="Trazado 877131" d="M143.485,411.823H225.37a10.241,10.241,0,0,0,10.158-11.546l-7.261-56.552a10.24,10.24,0,0,0-10.158-8.936H136.225a10.241,10.241,0,0,0-10.158,11.546l7.261,56.552A10.24,10.24,0,0,0,143.485,411.823Z" transform="translate(-125.982 -331.823)" fill="#edf1f7"/>
        <circle id="Elipse_11594" data-name="Elipse 11594" cx="6.658" cy="6.658" r="6.658" transform="translate(45.61 27.314)" fill="#d7d8db"/>
        <path id="Trazado_877132" data-name="Trazado 877132" d="M157.206,450.443h28.88l9.891-56.928H167.1Z" transform="translate(-126.323 -332.464)" fill="#d7d8db"/>
        <path id="Trazado_877133" data-name="Trazado 877133" d="M196.369,393.515l4.677,18.678h-7.923Z" transform="translate(-126.715 -332.464)" fill="#c2c3c6"/>
        <rect id="Rectángulo_402945" data-name="Rectángulo 402945" width="67.303" height="4.79" transform="translate(79.693 122.257) rotate(180)" fill="#edf1f7"/>
      </g>
      <circle id="Elipse_11595" data-name="Elipse 11595" cx="31.817" cy="31.817" r="31.817" transform="translate(54.123 358.156) rotate(-76.527)" fill="#bdaaeb"/>
      <g id="Grupo_1101413" data-name="Grupo 1101413" transform="translate(279.893 303.748)">
        <path id="Trazado_877134" data-name="Trazado 877134" d="M285.145,458.635h66.908l2.742-70.471c.427-10.98-7.389-20.144-17.183-20.144H299.586c-9.794,0-17.611,9.164-17.183,20.144Z" transform="translate(-282.386 -305.055)" fill="#1a50c7"/>
        <line id="Línea_687" data-name="Línea 687" x2="1.317" y2="33.882" transform="translate(0.327 91.08)" fill="none" stroke="#342d3a" stroke-linecap="round" stroke-linejoin="round" stroke-miterlimit="10" stroke-width="1"/>
        <path id="Trazado_877135" data-name="Trazado 877135" d="M298.261,367.95a21.126,21.126,0,0,0,37.625-.079H325.431V356.843a8.778,8.778,0,0,0-.485-2.9,14.587,14.587,0,0,1-8.328,4.57,13.826,13.826,0,0,1-2.492.218c-.138,0-.277,0-.415-.01-.386.03-.771.049-1.167.049-.435,0-.87-.02-1.3-.059h-.059a16.072,16.072,0,0,1-3.8-.663v9.822h.1l-.1.1v-.1h-7.646A12.208,12.208,0,0,0,298.261,367.95Z" transform="translate(-282.559 -304.902)" fill="#f88895"/>
        <path id="Trazado_877136" data-name="Trazado 877136" d="M302.012,336.283c2.079,2.756,2.1,6.244.052,7.791s-5.4.567-7.477-2.189-2.1-6.244-.052-7.791S299.933,333.527,302.012,336.283Z" transform="translate(-282.502 -304.677)" fill="#dd6f7f"/>
        <g id="Grupo_1101410" data-name="Grupo 1101410" transform="translate(13.67 1.024)">
          <path id="Trazado_877137" data-name="Trazado 877137" d="M298.354,324.273a19.474,19.474,0,0,1,1.167-6.5,18.685,18.685,0,0,1,36.271,6.613,21.339,21.339,0,0,1-6.561,14.9,23.64,23.64,0,0,0-.3,3.9,14.9,14.9,0,0,1-14.79,15.007,15.906,15.906,0,0,1-15.788-16.02V325.435a.988.988,0,0,1,.041-.2c-.013-.281-.041-.557-.041-.843v-.118Z" transform="translate(-296.23 -305.395)" fill="#342d3a"/>
          <path id="Trazado_877138" data-name="Trazado 877138" d="M296.208,324.774a18.951,18.951,0,0,1,1.167-6.4,18.722,18.722,0,0,1,36.271,6.517,20.891,20.891,0,0,1-6.561,14.681,22.959,22.959,0,0,0-.3,3.847,14.79,14.79,0,0,1-14.79,14.79,15.788,15.788,0,0,1-15.788-15.788v-16.5a.959.959,0,0,1,.041-.2c-.013-.277-.041-.548-.041-.83v-.116Z" transform="translate(-296.207 -305.403)" fill="#f88895"/>
          <path id="Trazado_877139" data-name="Trazado 877139" d="M315.426,378.7h1.057a9.061,9.061,0,0,0,9.061-9.061V350.944a9.061,9.061,0,0,0-9.061-9.061h0a9.061,9.061,0,0,0-9.061,9.061v19.75A8,8,0,0,0,315.426,378.7Z" transform="translate(-296.329 -305.794)" fill="#f88895"/>
          <path id="Trazado_877140" data-name="Trazado 877140" d="M307.506,357.944v10.068l9.668-9.9a14.981,14.981,0,0,1-4.517.7A15.514,15.514,0,0,1,307.506,357.944Z" transform="translate(-296.33 -305.969)" fill="#342d3a"/>
          <path id="Trazado_877141" data-name="Trazado 877141" d="M296.208,321.567c2.857.821,5.921.171,8.813-.616,3.012-.8,6.092-1.779,9.173-1.386,6.178.787,10.678,7.94,8.71,13.844a13.759,13.759,0,0,0-.924,3.029,2.585,2.585,0,0,0,1.232,2.686c1.095.5,2.379-.223,3.115-1.163s1.13-2.1,1.849-3.063a5.393,5.393,0,0,1,4.329-2.036,20.217,20.217,0,0,0,1.882-8.248,19.221,19.221,0,0,0-37.238-6.691A18.434,18.434,0,0,0,296.208,321.567Z" transform="translate(-296.207 -305.395)" fill="#342d3a"/>
        </g>
        <path id="Trazado_877142" data-name="Trazado 877142" d="M326.472,335.983c-2.241,2.971-2.425,6.612-.409,8.132s5.466.344,7.707-2.627,2.425-6.612.409-8.132S328.713,333.011,326.472,335.983Z" transform="translate(-282.848 -304.67)" fill="#f88895"/>
        <line id="Línea_688" data-name="Línea 688" x1="4.698" y2="4.08" transform="translate(45.118 32.139)" fill="none" stroke="#342d3a" stroke-linecap="round" stroke-linejoin="round" stroke-miterlimit="10" stroke-width="1"/>
        <path id="Trazado_877143" data-name="Trazado 877143" d="M309.422,335.206a5.117,5.117,0,0,1,3.644-1.385,5.328,5.328,0,0,1,3.557,1.728" transform="translate(-282.681 -304.682)" fill="none" stroke="#342d3a" stroke-linecap="round" stroke-linejoin="round" stroke-miterlimit="10" stroke-width="1"/>
        <path id="Trazado_877144" data-name="Trazado 877144" d="M311.525,335.212a1.52,1.52,0,1,1,1.519,1.519A1.52,1.52,0,0,1,311.525,335.212Z" transform="translate(-282.704 -304.68)" fill="#342d3a"/>
        <path id="Trazado_877145" data-name="Trazado 877145" d="M295.738,335.206a5.117,5.117,0,0,1,3.644-1.385,5.328,5.328,0,0,1,3.557,1.728" transform="translate(-282.532 -304.682)" fill="none" stroke="#342d3a" stroke-linecap="round" stroke-linejoin="round" stroke-miterlimit="10" stroke-width="1"/>
        <path id="Trazado_877146" data-name="Trazado 877146" d="M297.841,335.212a1.52,1.52,0,1,1,1.519,1.519A1.52,1.52,0,0,1,297.841,335.212Z" transform="translate(-282.555 -304.68)" fill="#342d3a"/>
        <path id="Trazado_877147" data-name="Trazado 877147" d="M306.325,337.854l-4.72,4.69,3.978,3.277" transform="translate(-282.596 -304.726)" fill="none" stroke="#342d3a" stroke-linecap="round" stroke-linejoin="round" stroke-miterlimit="10" stroke-width="1"/>
        <g id="Grupo_1101411" data-name="Grupo 1101411" transform="translate(26.073 24.131)">
          <path id="Trazado_877148" data-name="Trazado 877148" d="M318.6,330.906a7.017,7.017,0,0,1-2.463.886,9.165,9.165,0,0,1-2.354.125,8.841,8.841,0,0,1-2.268-.476,6.086,6.086,0,0,1-2.16-1.229l-.4-.364a.626.626,0,0,1,.608-1.061c.745.237,1.493.454,2.244.642s1.507.351,2.261.528c.759.143,1.514.3,2.275.431s1.523.237,2.29.321a.086.086,0,0,1,.076.094.087.087,0,0,1-.041.064Z" transform="translate(-308.747 -328.757)" fill="#342d3a"/>
        </g>
        <path id="Trazado_877149" data-name="Trazado 877149" d="M294.5,330.7a5.823,5.823,0,0,1,1.677-1.541,6.337,6.337,0,0,1,1.764-.778,5.624,5.624,0,0,1,1.832-.179,4.035,4.035,0,0,1,1.917.575l.389.235a.7.7,0,0,1,.232.835.5.5,0,0,1-.46.354c-.619-.02-1.236-.018-1.851.013s-1.224.085-1.838.127c-.609.074-1.22.132-1.827.223s-1.212.2-1.814.332a.071.071,0,0,1-.078-.069.1.1,0,0,1,.017-.073Z" transform="translate(-282.518 -304.62)" fill="#342d3a"/>
        <line id="Línea_689" data-name="Línea 689" y2="1.855" transform="translate(22.863 48.459)" fill="none" stroke="#342d3a" stroke-linecap="round" stroke-linejoin="round" stroke-miterlimit="10" stroke-width="1"/>
        <path id="Trazado_877150" data-name="Trazado 877150" d="M309.44,348.8a6.682,6.682,0,0,1-5.589.886" transform="translate(-282.621 -304.845)" fill="none" stroke="#342d3a" stroke-linecap="round" stroke-linejoin="round" stroke-miterlimit="10" stroke-width="1"/>
        <g id="Grupo_1101412" data-name="Grupo 1101412" transform="translate(10.54 27.426)">
          <path id="Trazado_877151" data-name="Trazado 877151" d="M309.85,341.775h6.783a3.133,3.133,0,0,0,3.133-3.133v-6.553h-13.05v6.553A3.134,3.134,0,0,0,309.85,341.775Z" transform="translate(-293.192 -332.089)" fill="none" stroke="#fefefe" stroke-linecap="round" stroke-linejoin="round" stroke-miterlimit="10" stroke-width="1"/>
          <path id="Trazado_877152" data-name="Trazado 877152" d="M296.175,341.775h5.006a3.133,3.133,0,0,0,3.133-3.133v-6.553H293.043v6.553A3.132,3.132,0,0,0,296.175,341.775Z" transform="translate(-293.043 -332.089)" fill="none" stroke="#fefefe" stroke-linecap="round" stroke-linejoin="round" stroke-miterlimit="10" stroke-width="1"/>
          <line id="Línea_690" data-name="Línea 690" x1="5.837" transform="translate(8.468)" fill="none" stroke="#fefefe" stroke-linecap="round" stroke-linejoin="round" stroke-miterlimit="10" stroke-width="1"/>
          <line id="Línea_691" data-name="Línea 691" x2="10.352" transform="translate(26.575)" fill="none" stroke="#fefefe" stroke-linecap="round" stroke-linejoin="round" stroke-miterlimit="10" stroke-width="1"/>
        </g>
        <path id="Trazado_877153" data-name="Trazado 877153" d="M318.41,304.471c5.35-.518,11.174.752,14.8,4.5a16.006,16.006,0,0,1,4.089,10.6,46.613,46.613,0,0,1-1.442,11.407,50.423,50.423,0,0,0-28.967-20.009c-.976-.249-3.732-.461-2.987-1.906.548-1.064,3.254-1.615,4.342-2.02A40.5,40.5,0,0,1,318.41,304.471Z" transform="translate(-282.62 -304.36)" fill="#184089"/>
        <path id="Trazado_877154" data-name="Trazado 877154" d="M299.1,312.181a.9.9,0,0,0,.769,1.545,30.158,30.158,0,0,1,22.194,4.869,30.786,30.786,0,0,1,11.8,14.6.9.9,0,0,0,1.724-.148,21.674,21.674,0,0,0,.369-3.923q0-.815-.058-1.6a.966.966,0,0,0-.074-.307,30.964,30.964,0,0,0-11.414-13.636,30.547,30.547,0,0,0-19.111-5.264.989.989,0,0,0-.328.081A22,22,0,0,0,299.1,312.181Z" transform="translate(-282.565 -304.403)" fill="#1a50c7"/>
        <path id="Trazado_877155" data-name="Trazado 877155" d="M323.652,319.7a32.008,32.008,0,0,1,4.718,3.917l3.511-3.758A31.433,31.433,0,0,0,327,315.409a6.987,6.987,0,0,1-1.968,3.313A6.332,6.332,0,0,1,323.652,319.7Z" transform="translate(-282.837 -304.481)" fill="#ffdd4d"/>
      </g>
      <rect id="Rectángulo_402946" data-name="Rectángulo 402946" width="343.645" height="6.271" transform="translate(83.11 453.272)" fill="#322d38"/>
      <g id="Grupo_1101415" data-name="Grupo 1101415" transform="translate(380.81 388.507)">
        <path id="Trazado_877156" data-name="Trazado 877156" d="M403.838,433.359v10.085l-12.311,11.85" transform="translate(-384.495 -390.528)" fill="none" stroke="#342d3a" stroke-miterlimit="10" stroke-width="1"/>
        <path id="Trazado_877157" data-name="Trazado 877157" d="M403.527,433.359v10.085l12.311,11.85" transform="translate(-384.626 -390.528)" fill="none" stroke="#342d3a" stroke-miterlimit="10" stroke-width="1"/>
        <g id="Grupo_1101414" data-name="Grupo 1101414" transform="translate(0 0)">
          <path id="Trazado_877158" data-name="Trazado 877158" d="M418.026,434.615H389.494a5.077,5.077,0,0,1-5.077-5.077v-13.17a5.077,5.077,0,0,1,5.077-5.077h28.533a5.076,5.076,0,0,1,5.076,5.077v13.17A5.077,5.077,0,0,1,418.026,434.615Z" transform="translate(-384.417 -390.287)" fill="#342d3a"/>
          <circle id="Elipse_11596" data-name="Elipse 11596" cx="10.589" cy="10.589" r="10.589" transform="translate(12.538 43.561) rotate(-75.972)" fill="#edf1f7"/>
          <circle id="Elipse_11597" data-name="Elipse 11597" cx="8.465" cy="8.465" r="8.465" transform="translate(16.904 27.399)" fill="#342d3a"/>
          <path id="Trazado_877159" data-name="Trazado 877159" d="M403.022,426.238a6.967,6.967,0,1,1,6.967,6.967A6.967,6.967,0,0,1,403.022,426.238Z" transform="translate(-384.62 -390.374)" fill="none" stroke="#edf1f7" stroke-miterlimit="10" stroke-width="1"/>
          <path id="Trazado_877160" data-name="Trazado 877160" d="M389.718,426.286a2.6,2.6,0,1,1,2.6,2.6A2.6,2.6,0,0,1,389.718,426.286Z" transform="translate(-384.475 -390.422)" fill="#d7d8db"/>
          <path id="Trazado_877161" data-name="Trazado 877161" d="M390.718,419.1a1.61,1.61,0,1,1,1.61,1.61A1.61,1.61,0,0,1,390.718,419.1Z" transform="translate(-384.486 -390.355)" fill="#f1317b"/>
          <rect id="Rectángulo_402947" data-name="Rectángulo 402947" width="10.426" height="4.451" transform="translate(21.91 17.062)" fill="#342d3a"/>
          <rect id="Rectángulo_402948" data-name="Rectángulo 402948" width="5.754" height="2.457" transform="translate(24.245 18.059)" fill="#edf1f7"/>
          <rect id="Rectángulo_402949" data-name="Rectángulo 402949" width="17.319" height="12.634" transform="translate(17.747)" fill="#342d3a"/>
          <rect id="Rectángulo_402950" data-name="Rectángulo 402950" width="11.859" height="8.651" transform="translate(20.477 1.992)" fill="#edf1f7"/>
          <line id="Línea_692" data-name="Línea 692" y2="4.427" transform="translate(26.406 12.635)" fill="none" stroke="#342d3a" stroke-miterlimit="10" stroke-width="1"/>
          <path id="Trazado_877162" data-name="Trazado 877162" d="M394.576,411.655h-4.137a.868.868,0,0,1-.867-.867h0a.868.868,0,0,1,.867-.867h4.137a.868.868,0,0,1,.867.867h0A.867.867,0,0,1,394.576,411.655Z" transform="translate(-384.473 -390.272)" fill="#342d3a"/>
        </g>
      </g>
      <g id="Grupo_1101420" data-name="Grupo 1101420" transform="translate(357.18 194.892)">
        <circle id="Elipse_11598" data-name="Elipse 11598" cx="39.031" cy="39.031" r="39.031" fill="#bdaaeb"/>
        <g id="Grupo_1101417" data-name="Grupo 1101417" transform="translate(2.581 4.955)">
          <g id="Grupo_1101416" data-name="Grupo 1101416">
            <path id="Trazado_877163" data-name="Trazado 877163" d="M430.621,267.594l-48.4,6.32,4.421,33.906,48.405-6.32Zm-39.9,36.5-1.553-11.948a11.34,11.34,0,0,1,6.844-1.948c6.112.415,10.712,6.607,16.834,6.844a2.069,2.069,0,0,0,.247.01c3.313.049,6.409-1.681,9.07-3.669,2.206-1.642,4.283-3.511,6.617-4.926l1.375,10.484Z" transform="translate(-382.225 -267.594)" fill="#edf1f7"/>
            <path id="Trazado_877164" data-name="Trazado 877164" d="M430.232,299.168,390.8,304.321l-1.553-11.948a11.34,11.34,0,0,1,6.844-1.948c6.112.415,10.712,6.607,16.834,6.844a2.069,2.069,0,0,0,.247.01c3.313.049,6.409-1.681,9.07-3.669,2.206-1.642,4.283-3.511,6.617-4.926Z" transform="translate(-382.302 -267.824)" fill="#cea932"/>
            <path id="Trazado_877165" data-name="Trazado 877165" d="M428.835,288.495c-2.334,1.414-4.411,3.284-6.617,4.926-2.661,1.988-5.756,3.719-9.07,3.669a2.069,2.069,0,0,1-.247-.01c-6.122-.237-10.722-6.429-16.834-6.844a11.34,11.34,0,0,0-6.844,1.948l-2.047-15.677,39.425-5.143Z" transform="translate(-382.279 -267.635)" fill="#f6cf44"/>
          </g>
          <path id="Trazado_877166" data-name="Trazado 877166" d="M389.245,292.373a11.34,11.34,0,0,1,6.844-1.948c6.112.415,10.712,6.607,16.834,6.844a2.069,2.069,0,0,0,.247.01c3.313.049,6.409-1.681,9.07-3.669,2.206-1.642,4.283-3.511,6.617-4.926" transform="translate(-382.302 -267.824)" fill="none" stroke="#342d3a" stroke-linecap="round" stroke-linejoin="round" stroke-miterlimit="10" stroke-width="1"/>
          <circle id="Elipse_11599" data-name="Elipse 11599" cx="5.499" cy="5.499" r="5.499" transform="translate(23.688 11.093)" fill="#cea932"/>
          <circle id="Elipse_11600" data-name="Elipse 11600" cx="5.499" cy="5.499" r="5.499" transform="translate(23.688 11.093)" fill="none" stroke="#342d3a" stroke-linecap="round" stroke-linejoin="round" stroke-miterlimit="10" stroke-width="1"/>
        </g>
        <g id="Grupo_1101419" data-name="Grupo 1101419" transform="translate(20.455 23.64)">
          <g id="Grupo_1101418" data-name="Grupo 1101418">
            <path id="Trazado_877167" data-name="Trazado 877167" d="M454.831,295.983l-47.873-9.5-6.66,33.538,47.882,9.5Zm-49.48,21.81,2.352-11.816a11.342,11.342,0,0,1,7.108.344c5.659,2.349,8.034,9.687,13.759,11.871a2.1,2.1,0,0,0,.231.089c3.124,1.107,6.61.458,9.767-.575,2.615-.85,5.181-1.956,7.845-2.55l-2.052,10.373Z" transform="translate(-400.297 -286.485)" fill="#edf1f7"/>
            <path id="Trazado_877168" data-name="Trazado 877168" d="M444.417,325.741,405.407,318l2.352-11.816a11.342,11.342,0,0,1,7.108.344c5.659,2.349,8.034,9.687,13.759,11.871a2.1,2.1,0,0,0,.231.089c3.124,1.107,6.61.458,9.767-.575,2.615-.85,5.181-1.956,7.845-2.55Z" transform="translate(-400.353 -286.696)" fill="#2b5899"/>
            <path id="Trazado_877169" data-name="Trazado 877169" d="M446.5,315.2c-2.664.593-5.23,1.7-7.845,2.55-3.157,1.032-6.644,1.681-9.767.575a1.994,1.994,0,0,1-.231-.089c-5.725-2.184-8.1-9.522-13.759-11.871a11.342,11.342,0,0,0-7.108-.344l3.077-15.508,39,7.743Z" transform="translate(-400.379 -286.529)" fill="#3065c4"/>
          </g>
          <path id="Trazado_877170" data-name="Trazado 877170" d="M407.785,306.188a11.342,11.342,0,0,1,7.108.344c5.659,2.349,8.034,9.687,13.759,11.871a2.1,2.1,0,0,0,.231.089c3.124,1.107,6.61.458,9.767-.575,2.615-.85,5.181-1.956,7.845-2.55" transform="translate(-400.379 -286.696)" fill="none" stroke="#342d3a" stroke-linecap="round" stroke-linejoin="round" stroke-miterlimit="10" stroke-width="1"/>
          <circle id="Elipse_11601" data-name="Elipse 11601" cx="5.499" cy="5.499" r="5.499" transform="translate(25.528 13.572)" fill="#2b5899"/>
          <circle id="Elipse_11602" data-name="Elipse 11602" cx="5.499" cy="5.499" r="5.499" transform="translate(25.528 13.572)" fill="none" stroke="#342d3a" stroke-linecap="round" stroke-linejoin="round" stroke-miterlimit="10" stroke-width="1"/>
        </g>
      </g>
      <g id="Grupo_1101422" data-name="Grupo 1101422" transform="translate(224.705 393.325)">
        <line id="Línea_693" data-name="Línea 693" y2="38.951" transform="translate(13.089 14.586)" fill="none" stroke="#342d3a" stroke-linecap="round" stroke-linejoin="round" stroke-miterlimit="10" stroke-width="1"/>
        <path id="Trazado_877171" data-name="Trazado 877171" d="M234.661,406.621c0-6.459,5.106-11.694,5.106-11.694s5.1,5.235,5.1,11.694-5.1,11.694-5.1,11.694S234.661,413.08,234.661,406.621Z" transform="translate(-226.677 -394.927)" fill="none" stroke="#342d3a" stroke-linecap="round" stroke-linejoin="round" stroke-miterlimit="10" stroke-width="1"/>
        <path id="Trazado_877172" data-name="Trazado 877172" d="M243.494,417.5c3.6-3.6,9.361-3.671,9.361-3.671s-.072,5.762-3.671,9.361-9.361,3.671-9.361,3.671S239.9,421.1,243.494,417.5Z" transform="translate(-226.734 -395.133)" fill="none" stroke="#342d3a" stroke-linecap="round" stroke-linejoin="round" stroke-miterlimit="10" stroke-width="1"/>
        <path id="Trazado_877173" data-name="Trazado 877173" d="M236.235,417.5c-3.6-3.6-9.361-3.671-9.361-3.671s.073,5.762,3.671,9.361,9.361,3.671,9.361,3.671S239.834,421.1,236.235,417.5Z" transform="translate(-226.592 -395.133)" fill="none" stroke="#342d3a" stroke-linecap="round" stroke-linejoin="round" stroke-miterlimit="10" stroke-width="1"/>
        <g id="Grupo_1101421" data-name="Grupo 1101421" transform="translate(0 35.384)">
          <rect id="Rectángulo_402951" data-name="Rectángulo 402951" width="21.31" height="21.31" transform="translate(2.434 3.206)" fill="#f6cf44"/>
          <rect id="Rectángulo_402952" data-name="Rectángulo 402952" width="26.179" height="6.412" fill="#cea932"/>
        </g>
      </g>
      <g id="Grupo_1101423" data-name="Grupo 1101423" transform="translate(70.553 318.964)">
        <rect id="Rectángulo_402953" data-name="Rectángulo 402953" width="43.519" height="31.285" transform="translate(0.315 0.018)" fill="#f67dbe"/>
        <path id="Trazado_877174" data-name="Trazado 877174" d="M92.651,342.906,70.734,319.745h43.834Z" transform="translate(-70.734 -319.745)" fill="#f1317b"/>
        <line id="Línea_694" data-name="Línea 694" x2="11.342" transform="translate(28.536 23.161)" fill="none" stroke="#342d3a" stroke-linecap="round" stroke-linejoin="round" stroke-miterlimit="10" stroke-width="1"/>
      </g>
      <g id="Grupo_1101427" data-name="Grupo 1101427" transform="translate(87.272 415.407)">
        <g id="Grupo_1101424" data-name="Grupo 1101424" transform="translate(6.708 24.538)">
          <rect id="Rectángulo_402954" data-name="Rectángulo 402954" width="70.131" height="12.911" fill="#f67dbf"/>
          <rect id="Rectángulo_402955" data-name="Rectángulo 402955" width="70.131" height="7.055" transform="translate(0 3.136)" fill="#fefefe"/>
          <line id="Línea_695" data-name="Línea 695" x2="25.613" transform="translate(0 6.457)" fill="none" stroke="#d7d8db" stroke-miterlimit="10" stroke-width="1"/>
          <line id="Línea_696" data-name="Línea 696" x2="25.613" transform="translate(44.518 6.457)" fill="none" stroke="#d7d8db" stroke-miterlimit="10" stroke-width="1"/>
        </g>
        <g id="Grupo_1101425" data-name="Grupo 1101425" transform="translate(11.653)">
          <rect id="Rectángulo_402956" data-name="Rectángulo 402956" width="70.131" height="12.911" fill="#f6cf44"/>
          <rect id="Rectángulo_402957" data-name="Rectángulo 402957" width="70.131" height="7.055" transform="translate(0 3.135)" fill="#fefefe"/>
          <line id="Línea_697" data-name="Línea 697" x2="25.613" transform="translate(0 6.456)" fill="none" stroke="#d7d8db" stroke-miterlimit="10" stroke-width="1"/>
          <line id="Línea_698" data-name="Línea 698" x2="25.613" transform="translate(44.518 6.456)" fill="none" stroke="#d7d8db" stroke-miterlimit="10" stroke-width="1"/>
        </g>
        <rect id="Rectángulo_402958" data-name="Rectángulo 402958" width="76.84" height="11.627" transform="translate(0 12.912)" fill="#1a50c7"/>
        <g id="Grupo_1101426" data-name="Grupo 1101426" transform="translate(27.251 14.878)">
          <path id="Trazado_877175" data-name="Trazado 877175" d="M117.059,432.383c1.182,0,1.762.656,1.762,1.859v3.8c0,1.2-.58,1.858-1.762,1.858H115.19v-7.521Zm-.687,6.447h.667c.376,0,.6-.193.6-.731v-3.911c0-.537-.226-.731-.6-.731h-.667Z" transform="translate(-115.19 -432.296)" fill="#fefefe"/>
          <path id="Trazado_877176" data-name="Trazado 877176" d="M122.429,435.552v1.074h-1.623v2.2h2.041V439.9h-3.223v-7.521h3.223v1.075h-2.041v2.095Z" transform="translate(-115.238 -432.296)" fill="#fefefe"/>
          <path id="Trazado_877177" data-name="Trazado 877177" d="M125.212,432.3c1.149,0,1.74.687,1.74,1.891v.236h-1.118v-.312c0-.537-.215-.742-.59-.742s-.591.2-.591.742c0,1.547,2.31,1.838,2.31,3.986,0,1.2-.6,1.891-1.762,1.891s-1.763-.687-1.763-1.891v-.462h1.118v.537c0,.538.236.731.612.731s.612-.193.612-.731c0-1.547-2.31-1.838-2.31-3.986C123.472,432.983,124.063,432.3,125.212,432.3Z" transform="translate(-115.28 -432.295)" fill="#fefefe"/>
          <path id="Trazado_877178" data-name="Trazado 877178" d="M128.871,432.383V439.9h-1.182v-7.521Z" transform="translate(-115.327 -432.296)" fill="#fefefe"/>
          <path id="Trazado_877179" data-name="Trazado 877179" d="M133.181,435.712V438.1c0,1.2-.6,1.891-1.762,1.891s-1.762-.687-1.762-1.891v-3.911c0-1.2.6-1.891,1.762-1.891s1.762.687,1.762,1.891v.731h-1.118v-.806c0-.537-.236-.742-.612-.742s-.612.2-.612.742v4.061c0,.538.236.731.612.731s.612-.193.612-.731v-1.386h-.537v-1.074Z" transform="translate(-115.348 -432.295)" fill="#fefefe"/>
          <path id="Trazado_877180" data-name="Trazado 877180" d="M135.046,439.9h-1.064v-7.521h1.483l1.215,4.5v-4.5h1.052V439.9h-1.215l-1.472-5.448V439.9Z" transform="translate(-115.395 -432.296)" fill="#fefefe"/>
        </g>
        <rect id="Rectángulo_402959" data-name="Rectángulo 402959" width="24.038" height="1.693" transform="translate(52.802 16.039)" fill="#fefefe"/>
        <rect id="Rectángulo_402960" data-name="Rectángulo 402960" width="24.038" height="1.693" transform="translate(0 16.039)" fill="#fefefe"/>
      </g>
      <g id="Grupo_1101430" data-name="Grupo 1101430" transform="translate(229.13 267.89)">
        <path id="Trazado_877272" data-name="Trazado 877272" d="M28.348,0A28.348,28.348,0,1,1,0,28.348,28.348,28.348,0,0,1,28.348,0Z" transform="translate(0 -76.832)" fill="#bdaaeb"/>
        <g id="Grupo_1101429" data-name="Grupo 1101429" transform="translate(21.102 -92)">
          <rect id="Rectángulo_402961" data-name="Rectángulo 402961" width="11.38" height="47.73" transform="translate(22.79 5.133) rotate(28.456)" fill="#f6cf44"/>
          <path id="Trazado_877181" data-name="Trazado 877181" d="M284.921,279.581l-10-5.423,1.961-3.618a4.647,4.647,0,0,1,6.3-1.871l1.835.994a4.646,4.646,0,0,1,1.87,6.3Z" transform="translate(-252.643 -268.107)" fill="#f67dbf"/>
          <path id="Trazado_877182" data-name="Trazado 877182" d="M263.078,320.746l-5.167,3.178-.514.314-4.814-2.608-.018-.6-.168-6.07Z" transform="translate(-252.397 -268.618)" fill="#f88895"/>
          <path id="Trazado_877183" data-name="Trazado 877183" d="M257.393,324.308l-4.668,2.87-.144-5.479Z" transform="translate(-252.399 -268.692)" fill="#342d3a"/>
          <g id="Grupo_1101428" data-name="Grupo 1101428" transform="translate(2.501 10.159)">
            <line id="Línea_699" data-name="Línea 699" x1="11.596" y2="21.395" transform="translate(2.517 17.635)" fill="none" stroke="#342d3a" stroke-linecap="round" stroke-linejoin="round" stroke-miterlimit="10" stroke-width="1"/>
            <line id="Línea_700" data-name="Línea 700" x1="20.416" y2="37.666" transform="translate(5.569 3.019)" fill="none" stroke="#342d3a" stroke-linecap="round" stroke-linejoin="round" stroke-miterlimit="10" stroke-width="1"/>
            <line id="Línea_701" data-name="Línea 701" x1="20.416" y2="37.666" fill="none" stroke="#342d3a" stroke-linecap="round" stroke-linejoin="round" stroke-miterlimit="10" stroke-width="1"/>
          </g>
        </g>
      </g>
      <g id="Grupo_1101432" data-name="Grupo 1101432" transform="translate(93.187 190.276)">
        <circle id="Elipse_11604" data-name="Elipse 11604" cx="26.944" cy="26.944" r="26.944" transform="translate(0 41.548) rotate(-50.441)" fill="#bdaaeb"/>
        <g id="Grupo_1101431" data-name="Grupo 1101431" transform="translate(29.745 22.345)">
          <path id="Trazado_877184" data-name="Trazado 877184" d="M182.758,302.032l-.845-5.655H175.9l-.847,5.655h-4.5l4.986-31.164h7.169l4.986,31.164Zm-1.513-9.881-2.36-15.761-2.358,15.761Z" transform="translate(-170.56 -270.868)" fill="none" stroke="#000" stroke-width="1"/>
        </g>
      </g>
      <path id="Trazado_877185" data-name="Trazado 877185" d="M333.173,381.824l-.606,55.044,8.181-8.736-.652-3.984L333.309,382.9C333.257,382.54,333.2,382.184,333.173,381.824Z" transform="translate(-3.041 -1.459)" fill="#342d3a"/>
      <g id="Grupo_1101434" data-name="Grupo 1101434" transform="translate(330.194 369.18)">
        <g id="Grupo_1101433" data-name="Grupo 1101433">
          <path id="Trazado_877186" data-name="Trazado 877186" d="M360.179,435.793l-2.49-26.938-2.618-28.418a10.938,10.938,0,1,0-21.781,2.024l2.564,27.835,2.551,27.512a10.935,10.935,0,0,0,11.9,9.889,10.617,10.617,0,0,0,2.76-.618A10.933,10.933,0,0,0,360.179,435.793Z" transform="translate(-333.243 -370.516)" fill="#1a50c7"/>
        </g>
      </g>
      <path id="Trazado_877187" data-name="Trazado 877187" d="M299.87,435.707l-10.947,2.04a9.192,9.192,0,1,0,2.218,11.9l10.948-2.04Z" transform="translate(-2.402 -2.047)" fill="#f88895"/>
      <path id="Trazado_877188" data-name="Trazado 877188" d="M286.069,455.418H259.723a10.7,10.7,0,0,1,10.7-10.7h4.943a10.7,10.7,0,0,1,10.7,10.7Z" transform="translate(-2.246 -2.145)" fill="#edf1f7"/>
      <g id="Grupo_1101435" data-name="Grupo 1101435" transform="translate(257.218 434.007)">
        <path id="Trazado_877189" data-name="Trazado 877189" d="M283.15,438.736l.013.18a2.881,2.881,0,0,1-2.671,3.076l-9.2.647a2.881,2.881,0,0,1-3.076-2.671l-.013-.18a2.881,2.881,0,0,1,2.672-3.076l9.2-.647A2.88,2.88,0,0,1,283.15,438.736Z" transform="translate(-259.556 -436.058)" fill="#f88895"/>
        <path id="Trazado_877190" data-name="Trazado 877190" d="M260.126,447.066l-.107-.145a2.882,2.882,0,0,1,.62-4.028l7.622-5.587a2.882,2.882,0,0,1,4.027.62l.107.145a2.882,2.882,0,0,1-.62,4.027l-7.622,5.587A2.882,2.882,0,0,1,260.126,447.066Z" transform="translate(-259.461 -436.065)" fill="#f88895"/>
      </g>
      <g id="Grupo_1101436" data-name="Grupo 1101436" transform="translate(261.212 436.067)">
        <path id="Trazado_877191" data-name="Trazado 877191" d="M285.086,440.8h0a2.971,2.971,0,0,1-2.642,3.268l-6.946.736a2.97,2.97,0,0,1-3.267-2.642h0a2.97,2.97,0,0,1,2.642-3.267l6.946-.736A2.97,2.97,0,0,1,285.086,440.8Z" transform="translate(-263.594 -438.141)" fill="#f88895"/>
        <path id="Trazado_877192" data-name="Trazado 877192" d="M264.074,449.049h0a2.972,2.972,0,0,1,.639-4.153l7.476-5.481a2.972,2.972,0,0,1,4.153.639h0a2.971,2.971,0,0,1-.639,4.153l-7.476,5.481A2.971,2.971,0,0,1,264.074,449.049Z" transform="translate(-263.499 -438.149)" fill="#f88895"/>
      </g>
      <path id="Trazado_877193" data-name="Trazado 877193" d="M279.921,438.35l-5.144.545c-.052.006-.1.024-.151.032a2.953,2.953,0,0,0-2.435.483l-7.476,5.481a2.972,2.972,0,0,0,.233,4.947" transform="translate(-2.287 -2.076)" fill="none" stroke="#342d3a" stroke-linecap="round" stroke-linejoin="round" stroke-miterlimit="10" stroke-width="1"/>
      <g id="Grupo_1101438" data-name="Grupo 1101438" transform="translate(267.168 438.06)">
        <g id="Grupo_1101437" data-name="Grupo 1101437">
          <path id="Trazado_877194" data-name="Trazado 877194" d="M291.107,442.815h0a2.97,2.97,0,0,1-2.642,3.267l-6.946.736a2.971,2.971,0,0,1-3.268-2.642h0a2.97,2.97,0,0,1,2.642-3.267l6.946-.736A2.97,2.97,0,0,1,291.107,442.815Z" transform="translate(-269.616 -440.156)" fill="#f88895"/>
          <path id="Trazado_877195" data-name="Trazado 877195" d="M270.1,451.065h0a2.972,2.972,0,0,1,.639-4.153l7.476-5.481a2.972,2.972,0,0,1,4.153.639h0a2.971,2.971,0,0,1-.64,4.153l-7.476,5.481A2.97,2.97,0,0,1,270.1,451.065Z" transform="translate(-269.521 -440.164)" fill="#f88895"/>
        </g>
        <path id="Trazado_877196" data-name="Trazado 877196" d="M284.585,440.511l-3.786.4c-.052.006-.1.024-.151.032a2.954,2.954,0,0,0-2.435.483l-7.476,5.481a2.972,2.972,0,0,0,.233,4.947" transform="translate(-269.521 -440.16)" fill="none" stroke="#342d3a" stroke-linecap="round" stroke-linejoin="round" stroke-miterlimit="10" stroke-width="1"/>
      </g>
      <g id="Grupo_1101440" data-name="Grupo 1101440" transform="translate(274.913 441.049)">
        <g id="Grupo_1101439" data-name="Grupo 1101439" transform="translate(0 0.275)">
          <path id="Trazado_877197" data-name="Trazado 877197" d="M277.814,451.676h0a2.393,2.393,0,0,1,.514-3.344l6.02-4.413a2.393,2.393,0,0,1,3.344.514h0a2.392,2.392,0,0,1-.515,3.344l-6.02,4.413A2.391,2.391,0,0,1,277.814,451.676Z" transform="translate(-277.351 -443.456)" fill="#f88895"/>
        </g>
        <path id="Trazado_877198" data-name="Trazado 877198" d="M289.48,443.178l-3.048.322c-.043,0-.08.019-.122.026a2.377,2.377,0,0,0-1.96.389l-6.02,4.413a2.394,2.394,0,0,0,.187,3.984" transform="translate(-277.351 -443.178)" fill="none" stroke="#342d3a" stroke-linecap="round" stroke-linejoin="round" stroke-miterlimit="10" stroke-width="1"/>
      </g>
      <g id="Grupo_1101442" data-name="Grupo 1101442" transform="translate(288.68 424.373)">
        <g id="Grupo_1101441" data-name="Grupo 1101441" transform="translate(0 0)">
          <path id="Trazado_877199" data-name="Trazado 877199" d="M349.814,448.134l-27.487,2.75-27.823,2.76c-.247.03-.495.04-.742.049l-2.492-21.661c.346-.059.7-.109,1.058-.148l28.4-2.829,26.923-2.68a10.934,10.934,0,0,1,11.335,7.032,10.682,10.682,0,0,1,.633,2.76A10.936,10.936,0,0,1,349.814,448.134Z" transform="translate(-291.27 -426.317)" fill="#1a50c7"/>
        </g>
        <line id="Línea_702" data-name="Línea 702" x1="2.492" y1="21.661" transform="translate(0 5.715)" fill="none"/>
      </g>
      <g id="Grupo_1101443" data-name="Grupo 1101443" transform="translate(289.738 424.373)">
        <path id="Trazado_877200" data-name="Trazado 877200" d="M292.34,431.884l28.4-2.829,26.923-2.68a10.93,10.93,0,0,1,10.7,5.654" transform="translate(-292.34 -426.317)" fill="none" stroke="#342d3a" stroke-linecap="round" stroke-linejoin="round" stroke-miterlimit="10" stroke-width="1"/>
      </g>
    </g>
    <rect id="Rectángulo_403001" data-name="Rectángulo 403001" width="400" height="10" transform="translate(1020.051 10633)" fill="#14d6f0"/>
  </g>
</svg>
