<svg xmlns="http://www.w3.org/2000/svg" xmlns:xlink="http://www.w3.org/1999/xlink" width="76" height="200" viewBox="0 0 76 200">
  <defs>
    <clipPath id="clip-path">
      <rect id="Rectángulo_402147" data-name="Rectángulo 402147" width="76" height="200" transform="translate(1343.73 3704)" fill="#fff" stroke="#707070" stroke-width="1"/>
    </clipPath>
    <clipPath id="clip-path-2">
      <rect id="Rectángulo_402145" data-name="Rectángulo 402145" width="108.597" height="105.437" transform="translate(0 0)" fill="#14d6f0"/>
    </clipPath>
    <clipPath id="clip-path-3">
      <rect id="Rectángulo_402146" data-name="Rectángulo 402146" width="285.407" height="51.265" fill="none" stroke="#14d6f0" stroke-width="1"/>
    </clipPath>
  </defs>
  <g id="Enmascarar_grupo_1099553" data-name="Enmascarar grupo 1099553" transform="translate(-1343.73 -3704)" clip-path="url(#clip-path)">
    <g id="Grupo_1100369" data-name="Grupo 1100369" transform="translate(1365.433 3851.282)" opacity="0.5">
      <g id="Grupo_1100368" data-name="Grupo 1100368" transform="translate(0 0)" clip-path="url(#clip-path-2)">
        <path id="Trazado_874876" data-name="Trazado 874876" d="M189.818,92.517h-8.307a1.068,1.068,0,1,1,0-2.134h8.307a1.068,1.068,0,1,1,0,2.134" transform="translate(-168.436 -84.604)" fill="#14d6f0"/>
        <path id="Trazado_874877" data-name="Trazado 874877" d="M413.367,92.517h-8.306a1.068,1.068,0,1,1,0-2.134h8.306a1.068,1.068,0,1,1,0,2.134" transform="translate(-377.156 -84.604)" fill="#14d6f0"/>
        <path id="Trazado_874878" data-name="Trazado 874878" d="M636.9,92.517h-8.307a1.068,1.068,0,1,1,0-2.134H636.9a1.068,1.068,0,1,1,0,2.134" transform="translate(-585.861 -84.604)" fill="#14d6f0"/>
        <path id="Trazado_874879" data-name="Trazado 874879" d="M860.453,92.517h-8.307a1.068,1.068,0,1,1,0-2.134h8.307a1.068,1.068,0,1,1,0,2.134" transform="translate(-794.582 -84.604)" fill="#14d6f0"/>
        <path id="Trazado_874880" data-name="Trazado 874880" d="M1083.986,92.517h-8.307a1.068,1.068,0,1,1,0-2.134h8.307a1.068,1.068,0,1,1,0,2.134" transform="translate(-1003.286 -84.604)" fill="#14d6f0"/>
        <path id="Trazado_874881" data-name="Trazado 874881" d="M1307.537,92.517h-8.307a1.068,1.068,0,1,1,0-2.134h8.307a1.068,1.068,0,1,1,0,2.134" transform="translate(-1212.007 -84.604)" fill="#14d6f0"/>
        <path id="Trazado_874882" data-name="Trazado 874882" d="M10.752,13.685H3.421A3.366,3.366,0,0,1,0,10.387V3.321A3.375,3.375,0,0,1,3.421,0h7.331a3.375,3.375,0,0,1,3.422,3.319v7.066a3.366,3.366,0,0,1-3.422,3.3M3.421,2.136A1.2,1.2,0,0,0,2.214,3.321v7.066a1.174,1.174,0,0,0,1.207,1.165h7.331a1.175,1.175,0,0,0,1.208-1.165V3.321a1.2,1.2,0,0,0-1.208-1.185Z" transform="translate(0 -0.002)" fill="#14d6f0"/>
        <path id="Trazado_874883" data-name="Trazado 874883" d="M10.752,1448.964H3.421a3.366,3.366,0,0,1-3.421-3.3V1438.6a3.365,3.365,0,0,1,3.421-3.3h7.331a3.365,3.365,0,0,1,3.422,3.3v7.066a3.366,3.366,0,0,1-3.422,3.3m-7.331-11.528a1.174,1.174,0,0,0-1.207,1.164v7.066a1.174,1.174,0,0,0,1.207,1.165h7.331a1.174,1.174,0,0,0,1.208-1.165V1438.6a1.174,1.174,0,0,0-1.208-1.164Z" transform="translate(0 -1343.528)" fill="#14d6f0"/>
        <path id="Trazado_874884" data-name="Trazado 874884" d="M1434.093,13.685h-7.331a3.366,3.366,0,0,1-3.422-3.3V3.321A3.375,3.375,0,0,1,1426.762,0h7.331a3.375,3.375,0,0,1,3.421,3.319v7.066a3.366,3.366,0,0,1-3.421,3.3m-7.331-11.549a1.2,1.2,0,0,0-1.208,1.185v7.066a1.174,1.174,0,0,0,1.208,1.165h7.331a1.174,1.174,0,0,0,1.208-1.165V3.321a1.2,1.2,0,0,0-1.208-1.185Z" transform="translate(-1328.917 -0.002)" fill="#14d6f0"/>
        <path id="Trazado_874885" data-name="Trazado 874885" d="M1434.093,1448.964h-7.331a3.366,3.366,0,0,1-3.422-3.3V1438.6a3.365,3.365,0,0,1,3.422-3.3h7.331a3.365,3.365,0,0,1,3.421,3.3v7.066a3.366,3.366,0,0,1-3.421,3.3m-7.331-11.528a1.174,1.174,0,0,0-1.208,1.164v7.066a1.174,1.174,0,0,0,1.208,1.165h7.331a1.174,1.174,0,0,0,1.208-1.165V1438.6a1.174,1.174,0,0,0-1.208-1.164Z" transform="translate(-1328.917 -1343.528)" fill="#14d6f0"/>
        <path id="Trazado_874886" data-name="Trazado 874886" d="M189.818,1527.54h-8.307a1.068,1.068,0,1,1,0-2.134h8.307a1.068,1.068,0,1,1,0,2.134" transform="translate(-168.436 -1427.87)" fill="#14d6f0"/>
        <path id="Trazado_874887" data-name="Trazado 874887" d="M413.367,1527.54h-8.306a1.068,1.068,0,1,1,0-2.134h8.306a1.068,1.068,0,1,1,0,2.134" transform="translate(-377.156 -1427.87)" fill="#14d6f0"/>
        <path id="Trazado_874888" data-name="Trazado 874888" d="M636.9,1527.54h-8.307a1.068,1.068,0,1,1,0-2.134H636.9a1.068,1.068,0,1,1,0,2.134" transform="translate(-585.861 -1427.87)" fill="#14d6f0"/>
        <path id="Trazado_874889" data-name="Trazado 874889" d="M860.453,1527.54h-8.307a1.068,1.068,0,1,1,0-2.134h8.307a1.068,1.068,0,1,1,0,2.134" transform="translate(-794.582 -1427.87)" fill="#14d6f0"/>
        <path id="Trazado_874890" data-name="Trazado 874890" d="M1083.986,1527.54h-8.307a1.068,1.068,0,1,1,0-2.134h8.307a1.068,1.068,0,1,1,0,2.134" transform="translate(-1003.286 -1427.87)" fill="#14d6f0"/>
        <path id="Trazado_874891" data-name="Trazado 874891" d="M1307.537,1527.54h-8.307a1.068,1.068,0,1,1,0-2.134h8.307a1.068,1.068,0,1,1,0,2.134" transform="translate(-1212.007 -1427.87)" fill="#14d6f0"/>
        <path id="Trazado_874892" data-name="Trazado 874892" d="M85.476,1314.293a1.087,1.087,0,0,1-1.107-1.067v-8.006a1.108,1.108,0,0,1,2.214,0v8.006a1.087,1.087,0,0,1-1.107,1.067" transform="translate(-78.772 -1220.764)" fill="#14d6f0"/>
        <path id="Trazado_874893" data-name="Trazado 874893" d="M85.476,1090.752a1.087,1.087,0,0,1-1.107-1.067v-8.006a1.108,1.108,0,0,1,2.214,0v8.006a1.087,1.087,0,0,1-1.107,1.067" transform="translate(-78.772 -1011.517)" fill="#14d6f0"/>
        <path id="Trazado_874894" data-name="Trazado 874894" d="M85.476,867.21a1.087,1.087,0,0,1-1.107-1.067v-8.006a1.108,1.108,0,0,1,2.214,0v8.006a1.087,1.087,0,0,1-1.107,1.067" transform="translate(-78.772 -802.268)" fill="#14d6f0"/>
        <path id="Trazado_874895" data-name="Trazado 874895" d="M85.476,643.667a1.087,1.087,0,0,1-1.107-1.067v-8.006a1.108,1.108,0,0,1,2.214,0V642.6a1.087,1.087,0,0,1-1.107,1.067" transform="translate(-78.772 -593.019)" fill="#14d6f0"/>
        <path id="Trazado_874896" data-name="Trazado 874896" d="M85.476,420.125a1.087,1.087,0,0,1-1.107-1.067v-8.006a1.108,1.108,0,0,1,2.214,0v8.006a1.087,1.087,0,0,1-1.107,1.067" transform="translate(-78.772 -383.77)" fill="#14d6f0"/>
        <path id="Trazado_874897" data-name="Trazado 874897" d="M85.476,196.576a1.087,1.087,0,0,1-1.107-1.067V187.5a1.108,1.108,0,0,1,2.214,0v8.007a1.087,1.087,0,0,1-1.107,1.067" transform="translate(-78.772 -174.515)" fill="#14d6f0"/>
        <path id="Trazado_874898" data-name="Trazado 874898" d="M1520.482,1314.293a1.087,1.087,0,0,1-1.107-1.067v-8.006a1.108,1.108,0,0,1,2.214,0v8.006a1.087,1.087,0,0,1-1.107,1.067" transform="translate(-1418.581 -1220.764)" fill="#14d6f0"/>
        <path id="Trazado_874899" data-name="Trazado 874899" d="M1520.482,1090.752a1.087,1.087,0,0,1-1.107-1.067v-8.006a1.108,1.108,0,0,1,2.214,0v8.006a1.087,1.087,0,0,1-1.107,1.067" transform="translate(-1418.581 -1011.517)" fill="#14d6f0"/>
        <path id="Trazado_874900" data-name="Trazado 874900" d="M1520.482,867.21a1.087,1.087,0,0,1-1.107-1.067v-8.006a1.108,1.108,0,0,1,2.214,0v8.006a1.087,1.087,0,0,1-1.107,1.067" transform="translate(-1418.581 -802.268)" fill="#14d6f0"/>
        <path id="Trazado_874901" data-name="Trazado 874901" d="M1520.482,643.667a1.087,1.087,0,0,1-1.107-1.067v-8.006a1.108,1.108,0,0,1,2.214,0V642.6a1.087,1.087,0,0,1-1.107,1.067" transform="translate(-1418.581 -593.019)" fill="#14d6f0"/>
        <path id="Trazado_874902" data-name="Trazado 874902" d="M1520.482,420.125a1.087,1.087,0,0,1-1.107-1.067v-8.006a1.108,1.108,0,0,1,2.214,0v8.006a1.087,1.087,0,0,1-1.107,1.067" transform="translate(-1418.581 -383.77)" fill="#14d6f0"/>
        <path id="Trazado_874903" data-name="Trazado 874903" d="M1520.482,196.576a1.087,1.087,0,0,1-1.107-1.067V187.5a1.108,1.108,0,0,1,2.214,0v8.007a1.087,1.087,0,0,1-1.107,1.067" transform="translate(-1418.581 -174.515)" fill="#14d6f0"/>
      </g>
    </g>
    <g id="Grupo_1100371" data-name="Grupo 1100371" transform="translate(1430.738 3533.822) rotate(90)" opacity="0.5">
      <g id="Grupo_1100370" data-name="Grupo 1100370" clip-path="url(#clip-path-3)">
        <path id="Trazado_874904" data-name="Trazado 874904" d="M0,0,35.36,25.6,70.735.024" transform="translate(213.417 24.382)" fill="none" stroke="#14d6f0" stroke-linecap="round" stroke-linejoin="round" stroke-width="2"/>
        <path id="Trazado_874905" data-name="Trazado 874905" d="M0,0,35.353,25.6,70.724.024l35.356,25.6" transform="translate(71.966 24.335)" fill="none" stroke="#14d6f0" stroke-linecap="round" stroke-linejoin="round" stroke-width="2"/>
        <line id="Línea_631" data-name="Línea 631" x2="35.353" y2="25.602" transform="translate(1.246 24.311)" fill="none" stroke="#14d6f0" stroke-linecap="round" stroke-linejoin="round" stroke-width="2"/>
        <path id="Trazado_874906" data-name="Trazado 874906" d="M0,25.579,35.371,0,70.73,25.6,106.108.024" transform="translate(178.054 1.35)" fill="none" stroke="#14d6f0" stroke-linecap="round" stroke-linejoin="round" stroke-width="2"/>
        <path id="Trazado_874907" data-name="Trazado 874907" d="M0,0,35.353,25.6,70.719.024l35.353,25.6L141.443.047" transform="translate(1.254 1.279)" fill="none" stroke="#14d6f0" stroke-linecap="round" stroke-linejoin="round" stroke-width="2"/>
      </g>
    </g>
  </g>
</svg>
