<svg xmlns="http://www.w3.org/2000/svg" width="100" height="100" viewBox="0 0 100 100">
  <g id="Grupo_1101216" data-name="Grupo 1101216" transform="translate(-193 -1381)">
    <rect id="Rectángulo_402787" data-name="Rectángulo 402787" width="100" height="100" rx="10" transform="translate(193 1381)" fill="#bdaaeb"/>
    <g id="Grupo_1101194" data-name="Grupo 1101194" transform="translate(213.355 1401.355)">
      <path id="Trazado_876773" data-name="Trazado 876773" d="M116.685,119.65H71.23a2.968,2.968,0,0,1-2.965-2.965V71.23a2.969,2.969,0,0,1,2.965-2.965h45.455a2.968,2.968,0,0,1,2.965,2.965v45.455A2.968,2.968,0,0,1,116.685,119.65ZM71.23,70.242a.99.99,0,0,0-.988.988v45.455a.99.99,0,0,0,.988.988h45.455a.989.989,0,0,0,.988-.988V71.23a.989.989,0,0,0-.988-.988Zm0,0" transform="translate(-60.36 -60.361)" fill="#5b2ccf"/>
      <path id="Trazado_876774" data-name="Trazado 876774" d="M8.893,51.384H2.965A2.968,2.968,0,0,1,0,48.419V2.964A2.968,2.968,0,0,1,2.965,0H48.419a2.968,2.968,0,0,1,2.965,2.965V8.893a.988.988,0,0,1-.988.988H10.87a.99.99,0,0,0-.988.988V50.4a.988.988,0,0,1-.988.988ZM2.965,1.976a.99.99,0,0,0-.988.988V48.419a.99.99,0,0,0,.988.988h4.94V10.869A2.969,2.969,0,0,1,10.87,7.9H49.408V2.964a.989.989,0,0,0-.988-.988Zm0,0" fill="#5b2ccf"/>
      <path id="Trazado_876775" data-name="Trazado 876775" d="M178.306,187.2h-16.8a.989.989,0,0,1-.988-.988v-4.94a.989.989,0,0,1,.988-.988h4.941V160.518h-5.929v2.965a.988.988,0,0,1-.988.988H154.59a.988.988,0,0,1-.988-.988v-8.893a.988.988,0,0,1,.988-.988h30.633a.988.988,0,0,1,.988.988v8.893a.988.988,0,0,1-.988.988h-4.941a.988.988,0,0,1-.988-.988v-2.965h-5.929v19.763h4.941a.988.988,0,0,1,.988.988v4.94a.988.988,0,0,1-.988.988ZM162.5,185.222h14.822v-2.965h-4.94a.989.989,0,0,1-.988-.988V159.53a.989.989,0,0,1,.988-.988h7.905a.989.989,0,0,1,.988.988v2.964h2.964v-6.917H155.579v6.917h2.964V159.53a.989.989,0,0,1,.988-.988h7.905a.989.989,0,0,1,.988.988v21.739a.989.989,0,0,1-.988.988H162.5Zm0,0" transform="translate(-135.815 -135.814)" fill="#5b2ccf"/>
    </g>
  </g>
</svg>
